<svg width="144" height="138" viewBox="0 0 144 138" fill="none" xmlns="http://www.w3.org/2000/svg">
    <path
        d="M141.434 112.081H130.714V15.2293C130.714 7.32243 124.282 0.889648 116.375 0.889648H11.3041C5.2369 0.889648 0.301758 5.82479 0.301758 11.892V24.8254C0.301758 26.0754 1.31591 27.0895 2.56591 27.0895H17.7752V124.534C17.7752 131.467 23.4179 137.11 30.3519 137.11H131.121C138.055 137.11 143.698 131.467 143.698 124.534V114.345C143.698 113.095 142.684 112.081 141.434 112.081ZM4.83006 22.5612V11.892C4.83006 8.32184 7.73395 5.41795 11.3041 5.41795C14.8713 5.41795 17.7752 8.32184 17.7752 11.892V22.5612H4.83006ZM38.4002 114.345V124.534C38.4002 128.97 34.7888 132.582 30.3519 132.582C25.915 132.582 22.3035 128.97 22.3035 124.534V11.892C22.3035 9.46479 21.4887 7.23933 20.1527 5.41795H116.375C121.785 5.41795 126.186 9.81948 126.186 15.2293V112.081H40.6644C39.4144 112.081 38.4002 113.095 38.4002 114.345ZM139.17 124.534C139.17 128.97 135.558 132.582 131.121 132.582H40.0099C41.8318 130.4 42.9285 127.591 42.9285 124.534V116.609H139.17V124.534Z"
        fill="#D91E3E" />
    <path
        d="M44.3935 98.8613C44.3935 100.111 45.4077 101.125 46.6577 101.125H101.835C103.085 101.125 104.099 100.111 104.099 98.8613C104.099 95.1171 107.147 92.0688 110.891 92.0688C112.141 92.0688 113.155 91.0546 113.155 89.8046V27.6938C113.155 26.4438 112.141 25.4297 110.891 25.4297C107.147 25.4297 104.099 22.3813 104.099 18.6372C104.099 17.3872 103.085 16.373 101.835 16.373H46.6577C45.4077 16.373 44.3935 17.3872 44.3935 18.6372C44.3935 22.3813 41.3452 25.4297 37.6011 25.4297C36.3511 25.4297 35.3369 26.4438 35.3369 27.6938V89.8046C35.3369 91.0546 36.3511 92.0688 37.6011 92.0688C41.3452 92.0688 44.3935 95.1171 44.3935 98.8613ZM39.8652 29.7309C44.2933 28.8288 47.7927 25.3294 48.6948 20.9013H99.7974C100.7 25.3294 104.199 28.8288 108.627 29.7309V87.7675C104.199 88.6696 100.7 92.169 99.7974 96.5971H48.6948C47.7927 92.169 44.2933 88.6696 39.8652 87.7675V29.7309Z"
        fill="#D91E3E" />
    <path
        d="M50.2011 77.7589L58.276 78.4842L61.0944 86.4028C61.3892 87.2283 62.1321 87.812 63.0048 87.8975C63.0785 87.9063 63.1551 87.9093 63.2288 87.9093C64.0189 87.9093 64.7589 87.4965 65.1687 86.8096L74.2599 71.6657L83.3202 86.8067C83.733 87.4965 84.4729 87.9093 85.263 87.9093C85.3367 87.9093 85.4104 87.9063 85.4871 87.8975C86.3597 87.812 87.1027 87.2283 87.3975 86.4028L90.2129 78.4842L98.2908 77.7589C99.0661 77.6882 99.7501 77.2253 100.104 76.5325C100.458 75.8367 100.431 75.0083 100.03 74.3421L92.4467 61.6654L91.967 56.4146L95.7082 52.1457C96.457 51.2937 96.46 50.0172 95.7112 49.1622L91.97 44.8934L92.4918 39.2448C92.595 38.1127 91.8432 37.0779 90.7347 36.8273L85.2011 35.5773L82.3002 30.6982C81.7194 29.7194 80.5107 29.3244 79.4582 29.7754L74.2459 32.0219L69.0337 29.7784C67.9841 29.3185 66.7725 29.7194 66.1887 30.7011L63.2937 35.5832L57.763 36.8303C56.6545 37.0809 55.9028 38.1127 56.006 39.2448L56.5219 44.8963L52.7837 49.1622C52.0319 50.0172 52.0349 51.2937 52.7837 52.1487L56.5248 56.4116L56.0478 61.6609L48.4617 74.3421C48.0608 75.0083 48.0343 75.8367 48.388 76.5325C48.7418 77.2253 49.4258 77.6882 50.2011 77.7589ZM88.3615 74.1033C87.483 74.1829 86.7283 74.7666 86.4305 75.6009L84.7383 80.3591L79.4542 71.529C79.746 71.6558 80.0508 71.7153 80.3515 71.7153C81.1298 71.7153 81.8786 71.3143 82.2972 70.6068L85.1952 65.7277L89.0768 64.8504L94.2931 73.5696L88.3615 74.1033ZM60.5667 47.1487C60.9765 46.6829 61.177 46.0696 61.1209 45.4505L60.6964 40.8102L65.2424 39.7843C65.8497 39.6487 66.3745 39.2654 66.6929 38.7318L69.0691 34.7224L73.3497 36.5649C73.9216 36.8126 74.5702 36.8126 75.1422 36.5649L79.4228 34.7194L81.8049 38.7259C82.1203 39.2625 82.6451 39.6428 83.2524 39.7784L87.7984 40.8073L87.3709 45.4446C87.3149 46.0638 87.5154 46.6799 87.9222 47.1457L90.9971 50.654L87.9222 54.1593C87.5125 54.6251 87.312 55.2383 87.368 55.8574L87.7925 60.4977L83.2465 61.5266C82.6392 61.6622 82.1145 62.0455 81.799 62.5791L79.4199 66.5856L75.1422 64.743C74.8562 64.6192 74.5496 64.5573 74.2459 64.5573C73.9423 64.5573 73.6357 64.6192 73.3527 64.74L69.072 66.5826L66.6988 62.5761C66.3804 62.0396 65.8556 61.6563 65.2483 61.5207L60.7023 60.4918L61.1239 55.8544C61.1799 55.2353 60.9794 54.6221 60.5696 54.1534L57.4977 50.654L60.5667 47.1487ZM59.4186 64.8445L63.2996 65.7218L66.1887 70.6009C66.7695 71.5826 67.9959 71.9777 69.0307 71.5296L69.074 71.5109L63.7536 80.3709L62.0584 75.6009C61.7607 74.7666 61.006 74.1829 60.1274 74.1033L54.1988 73.5696L59.4186 64.8445Z"
        fill="#D91E3E" />
    <path
        d="M74.2464 59.2916C79.0105 59.2916 82.8843 55.4177 82.8843 50.6536C82.8843 45.8894 79.0105 42.0156 74.2464 42.0156C69.4822 42.0156 65.6084 45.8894 65.6084 50.6536C65.6084 55.4177 69.4822 59.2916 74.2464 59.2916ZM74.2464 46.5439C76.5135 46.5439 78.356 48.3865 78.356 50.6536C78.356 52.9207 76.5135 54.7633 74.2464 54.7633C71.9793 54.7633 70.1367 52.9207 70.1367 50.6536C70.1367 48.3865 71.9793 46.5439 74.2464 46.5439Z"
        fill="#D91E3E" />
</svg>
    
    