<svg width="99" height="138" viewBox="0 0 99 138" fill="none" xmlns="http://www.w3.org/2000/svg">
    <g filter="url(#filter0_d_352_855)">
        <path
            d="M4 45.5C4 20.371 24.371 0 49.5 0C74.629 0 95 20.371 95 45.5V130H49.5C24.371 130 4 109.629 4 84.5V45.5Z"
            fill="#D91E3E" />
    </g>
    <path
        d="M80.9089 74.9029C80.7645 71.6575 79.4606 68.4573 77.3318 66.1231C76.6085 65.33 75.7574 64.6351 74.8078 64.047L73.2897 49.3601H76.9995V43.4757C76.9995 42.451 76.9995 34.6404 76.9995 33.6683H76.9229C76.111 23.1476 68.918 14.2922 59.1238 11.1835C55.5861 10.0606 51.8952 9.73462 48.1538 10.2147C36.3383 11.7305 27.3733 21.7651 26.1453 33.6683H26.0009C26.0009 34.1427 26.0009 48.9657 26.0009 49.3602H29.7456L28.4814 63.8743C27.4151 64.4974 26.4655 65.2512 25.6699 66.1234C23.5412 68.4574 22.2369 71.6572 22.0918 74.9025L22 76.9516H81L80.9089 74.9029ZM50.1449 57.1413C43.2055 56.4795 37.7697 50.1805 37.7697 42.8012V37.5912H38.8051C43.7892 37.5912 48.4578 35.2941 51.5002 31.4279C54.5421 35.2934 59.2101 37.5912 64.1953 37.5912H65.2307V43.4757C65.2307 45.4809 64.7872 47.4436 63.9614 49.2315C63.4916 49.4096 64.1261 49.3601 53.4618 49.3601V53.2569H61.1078C58.1856 56.1223 54.2597 57.5337 50.1449 57.1413ZM59.568 64.7471C57.7599 67.3636 54.7667 68.975 51.5003 68.975C48.234 68.975 45.2407 67.3636 43.4326 64.7469L45.2254 64.5143L46.2937 60.336C47.9673 60.8671 49.6929 61.1304 51.5263 61.1304C53.3093 61.1304 55.0515 60.8681 56.7122 60.3573L57.7752 64.5143L59.568 64.7471ZM42.6648 58.6915L42.0832 60.9663L34.1189 61.9997C33.5871 62.0687 33.067 62.1651 32.5578 62.2822L33.6833 49.3601H35.0239C36.4338 53.1617 39.0892 56.5348 42.6648 58.6915ZM37.9078 33.6683C38.8546 26.9509 44.5886 21.7685 51.5002 21.7685C58.4117 21.7685 64.1458 26.9508 65.0926 33.6683H64.1953C59.5323 33.6683 55.3401 31.0774 53.2547 26.9067L51.5003 23.3979L49.7459 26.9067C47.6605 31.0774 43.4683 33.6683 38.8051 33.6683H37.9078ZM66.9711 51.9681C67.805 51.2912 68.4504 50.3914 68.8161 49.36H69.3458L70.6872 62.3388C70.1024 62.1947 69.5013 62.0806 68.8857 62.0007L60.9171 60.9663L60.3529 58.7595C63.0401 57.1919 65.369 54.8896 66.9711 51.9681ZM69.1536 45.4371C69.1536 44.5781 69.1536 38.5895 69.1536 37.5912H73.0766C73.0766 38.4926 73.0766 44.5915 73.0766 45.4371H69.1536ZM48.653 14.1057C61.3064 12.4823 71.9103 21.8928 72.9854 33.6683H69.0457C68.0734 24.7817 60.5763 17.8456 51.5002 17.8456C42.4242 17.8456 34.927 24.7816 33.9547 33.6683H30.0872C31.2748 23.5486 38.8586 15.3622 48.653 14.1057ZM29.9238 37.5912H33.8468C33.8468 44.6519 33.8468 37.7957 33.8468 45.4371H29.9238C29.9238 44.5781 29.9238 38.5895 29.9238 37.5912ZM26.3138 73.0287C26.7172 71.4313 27.4967 69.9417 28.5683 68.7668C29.9632 67.2374 32.1138 66.2157 34.6237 65.89L39.2118 65.2946C41.5265 69.9388 46.2625 72.8979 51.5002 72.8979C56.7376 72.8979 61.4735 69.939 63.7883 65.2948L68.3807 65.891C70.8895 66.2166 73.039 67.238 74.4332 68.7667C75.5049 69.9417 76.2841 71.4311 76.6872 73.0287H26.3138Z"
        fill="white" />
    <path
        d="M21.3992 89.2525V90.4375H16.2392V94.0075H20.4167V95.1475H16.2392V98.815H21.3992V100H14.7767V89.2525H21.3992ZM27.6325 93.655C27.5725 93.765 27.48 93.82 27.355 93.82C27.28 93.82 27.195 93.7925 27.1 93.7375C27.005 93.6825 26.8875 93.6225 26.7475 93.5575C26.6125 93.4875 26.45 93.425 26.26 93.37C26.07 93.31 25.845 93.28 25.585 93.28C25.36 93.28 25.1575 93.31 24.9775 93.37C24.7975 93.425 24.6425 93.5025 24.5125 93.6025C24.3875 93.7025 24.29 93.82 24.22 93.955C24.155 94.085 24.1225 94.2275 24.1225 94.3825C24.1225 94.5775 24.1775 94.74 24.2875 94.87C24.4025 95 24.5525 95.1125 24.7375 95.2075C24.9225 95.3025 25.1325 95.3875 25.3675 95.4625C25.6025 95.5325 25.8425 95.61 26.0875 95.695C26.3375 95.775 26.58 95.865 26.815 95.965C27.05 96.065 27.26 96.19 27.445 96.34C27.63 96.49 27.7775 96.675 27.8875 96.895C28.0025 97.11 28.06 97.37 28.06 97.675C28.06 98.025 27.9975 98.35 27.8725 98.65C27.7475 98.945 27.5625 99.2025 27.3175 99.4225C27.0725 99.6375 26.7725 99.8075 26.4175 99.9325C26.0625 100.058 25.6525 100.12 25.1875 100.12C24.6575 100.12 24.1775 100.035 23.7475 99.865C23.3175 99.69 22.9525 99.4675 22.6525 99.1975L22.9675 98.6875C23.0075 98.6225 23.055 98.5725 23.11 98.5375C23.165 98.5025 23.2375 98.485 23.3275 98.485C23.4175 98.485 23.5125 98.52 23.6125 98.59C23.7125 98.66 23.8325 98.7375 23.9725 98.8225C24.1175 98.9075 24.29 98.985 24.49 99.055C24.695 99.125 24.95 99.16 25.255 99.16C25.515 99.16 25.7425 99.1275 25.9375 99.0625C26.1325 98.9925 26.295 98.9 26.425 98.785C26.555 98.67 26.65 98.5375 26.71 98.3875C26.775 98.2375 26.8075 98.0775 26.8075 97.9075C26.8075 97.6975 26.75 97.525 26.635 97.39C26.525 97.25 26.3775 97.1325 26.1925 97.0375C26.0075 96.9375 25.795 96.8525 25.555 96.7825C25.32 96.7075 25.0775 96.63 24.8275 96.55C24.5825 96.47 24.34 96.38 24.1 96.28C23.865 96.175 23.655 96.045 23.47 95.89C23.285 95.735 23.135 95.545 23.02 95.32C22.91 95.09 22.855 94.8125 22.855 94.4875C22.855 94.1975 22.915 93.92 23.035 93.655C23.155 93.385 23.33 93.15 23.56 92.95C23.79 92.745 24.0725 92.5825 24.4075 92.4625C24.7425 92.3425 25.125 92.2825 25.555 92.2825C26.055 92.2825 26.5025 92.3625 26.8975 92.5225C27.2975 92.6775 27.6425 92.8925 27.9325 93.1675L27.6325 93.655ZM34.9689 93.7525C34.9289 93.8075 34.8889 93.85 34.8489 93.88C34.8089 93.91 34.7514 93.925 34.6764 93.925C34.6014 93.925 34.5189 93.895 34.4289 93.835C34.3439 93.77 34.2339 93.7 34.0989 93.625C33.9639 93.55 33.7989 93.4825 33.6039 93.4225C33.4139 93.3575 33.1789 93.325 32.8989 93.325C32.5289 93.325 32.2014 93.3925 31.9164 93.5275C31.6314 93.6575 31.3914 93.8475 31.1964 94.0975C31.0064 94.3475 30.8614 94.65 30.7614 95.005C30.6664 95.36 30.6189 95.7575 30.6189 96.1975C30.6189 96.6575 30.6714 97.0675 30.7764 97.4275C30.8814 97.7825 31.0289 98.0825 31.2189 98.3275C31.4089 98.5675 31.6389 98.7525 31.9089 98.8825C32.1839 99.0075 32.4914 99.07 32.8314 99.07C33.1564 99.07 33.4239 99.0325 33.6339 98.9575C33.8439 98.8775 34.0189 98.79 34.1589 98.695C34.2989 98.6 34.4139 98.515 34.5039 98.44C34.5939 98.36 34.6839 98.32 34.7739 98.32C34.8889 98.32 34.9739 98.3625 35.0289 98.4475L35.4039 98.935C35.0739 99.34 34.6614 99.6375 34.1664 99.8275C33.6714 100.012 33.1489 100.105 32.5989 100.105C32.1239 100.105 31.6814 100.017 31.2714 99.8425C30.8664 99.6675 30.5139 99.415 30.2139 99.085C29.9139 98.75 29.6764 98.34 29.5014 97.855C29.3314 97.37 29.2464 96.8175 29.2464 96.1975C29.2464 95.6325 29.3239 95.11 29.4789 94.63C29.6389 94.15 29.8689 93.7375 30.1689 93.3925C30.4739 93.0425 30.8489 92.77 31.2939 92.575C31.7389 92.38 32.2489 92.2825 32.8239 92.2825C33.3539 92.2825 33.8239 92.37 34.2339 92.545C34.6439 92.715 35.0064 92.9575 35.3214 93.2725L34.9689 93.7525ZM36.7884 100V92.4025H37.5534C37.6984 92.4025 37.7984 92.43 37.8534 92.485C37.9084 92.54 37.9459 92.635 37.9659 92.77L38.0559 93.955C38.3159 93.425 38.6359 93.0125 39.0159 92.7175C39.4009 92.4175 39.8509 92.2675 40.3659 92.2675C40.5759 92.2675 40.7659 92.2925 40.9359 92.3425C41.1059 92.3875 41.2634 92.4525 41.4084 92.5375L41.2359 93.535C41.2009 93.66 41.1234 93.7225 41.0034 93.7225C40.9334 93.7225 40.8259 93.7 40.6809 93.655C40.5359 93.605 40.3334 93.58 40.0734 93.58C39.6084 93.58 39.2184 93.715 38.9034 93.985C38.5934 94.255 38.3334 94.6475 38.1234 95.1625V100H36.7884ZM44.3232 92.4025V100H42.9882V92.4025H44.3232ZM45.8832 89.1325L44.1357 91.0675C44.0657 91.1425 43.9957 91.1975 43.9257 91.2325C43.8607 91.2625 43.7757 91.2775 43.6707 91.2775H42.8757L43.9857 89.4625C44.0557 89.3475 44.1307 89.265 44.2107 89.215C44.2957 89.16 44.4182 89.1325 44.5782 89.1325H45.8832ZM46.7211 100V88.9525H48.0636V93.4975C48.3786 93.1325 48.7386 92.84 49.1436 92.62C49.5536 92.395 50.0211 92.2825 50.5461 92.2825C50.9861 92.2825 51.3836 92.365 51.7386 92.53C52.0936 92.695 52.3961 92.9425 52.6461 93.2725C52.8961 93.5975 53.0886 94.0025 53.2236 94.4875C53.3586 94.9675 53.4261 95.5225 53.4261 96.1525C53.4261 96.7125 53.3511 97.235 53.2011 97.72C53.0511 98.2 52.8336 98.6175 52.5486 98.9725C52.2686 99.3225 51.9236 99.6 51.5136 99.805C51.1086 100.005 50.6511 100.105 50.1411 100.105C49.6511 100.105 49.2336 100.01 48.8886 99.82C48.5486 99.63 48.2511 99.365 47.9961 99.025L47.9286 99.715C47.8886 99.905 47.7736 100 47.5836 100H46.7211ZM50.1111 93.3475C49.6761 93.3475 49.2936 93.4475 48.9636 93.6475C48.6386 93.8475 48.3386 94.13 48.0636 94.495V98.17C48.3036 98.5 48.5686 98.7325 48.8586 98.8675C49.1536 99.0025 49.4811 99.07 49.8411 99.07C50.5511 99.07 51.0961 98.8175 51.4761 98.3125C51.8561 97.8075 52.0461 97.0875 52.0461 96.1525C52.0461 95.6575 52.0011 95.2325 51.9111 94.8775C51.8261 94.5225 51.7011 94.2325 51.5361 94.0075C51.3711 93.7775 51.1686 93.61 50.9286 93.505C50.6886 93.4 50.4161 93.3475 50.1111 93.3475ZM58.0625 92.2825C58.5175 92.2825 58.9375 92.36 59.3225 92.515C59.7075 92.665 60.04 92.885 60.32 93.175C60.6 93.46 60.8175 93.815 60.9725 94.24C61.1325 94.66 61.2125 95.14 61.2125 95.68C61.2125 95.89 61.19 96.03 61.145 96.1C61.1 96.17 61.015 96.205 60.89 96.205H55.835C55.845 96.685 55.91 97.1025 56.03 97.4575C56.15 97.8125 56.315 98.11 56.525 98.35C56.735 98.585 56.985 98.7625 57.275 98.8825C57.565 98.9975 57.89 99.055 58.25 99.055C58.585 99.055 58.8725 99.0175 59.1125 98.9425C59.3575 98.8625 59.5675 98.7775 59.7425 98.6875C59.9175 98.5975 60.0625 98.515 60.1775 98.44C60.2975 98.36 60.4 98.32 60.485 98.32C60.595 98.32 60.68 98.3625 60.74 98.4475L61.115 98.935C60.95 99.135 60.7525 99.31 60.5225 99.46C60.2925 99.605 60.045 99.725 59.78 99.82C59.52 99.915 59.25 99.985 58.97 100.03C58.69 100.08 58.4125 100.105 58.1375 100.105C57.6125 100.105 57.1275 100.017 56.6825 99.8425C56.2425 99.6625 55.86 99.4025 55.535 99.0625C55.215 98.7175 54.965 98.2925 54.785 97.7875C54.605 97.2825 54.515 96.7025 54.515 96.0475C54.515 95.5175 54.595 95.0225 54.755 94.5625C54.92 94.1025 55.155 93.705 55.46 93.37C55.765 93.03 56.1375 92.765 56.5775 92.575C57.0175 92.38 57.5125 92.2825 58.0625 92.2825ZM58.0925 93.265C57.4475 93.265 56.94 93.4525 56.57 93.8275C56.2 94.1975 55.97 94.7125 55.88 95.3725H60.0125C60.0125 95.0625 59.97 94.78 59.885 94.525C59.8 94.265 59.675 94.0425 59.51 93.8575C59.345 93.6675 59.1425 93.5225 58.9025 93.4225C58.6675 93.3175 58.3975 93.265 58.0925 93.265ZM62.9212 100V92.4025H63.7162C63.9062 92.4025 64.0262 92.495 64.0762 92.68L64.1812 93.505C64.5112 93.14 64.8787 92.845 65.2837 92.62C65.6937 92.395 66.1662 92.2825 66.7012 92.2825C67.1162 92.2825 67.4812 92.3525 67.7962 92.4925C68.1162 92.6275 68.3812 92.8225 68.5912 93.0775C68.8062 93.3275 68.9687 93.63 69.0787 93.985C69.1887 94.34 69.2437 94.7325 69.2437 95.1625V100H67.9087V95.1625C67.9087 94.5875 67.7762 94.1425 67.5112 93.8275C67.2512 93.5075 66.8512 93.3475 66.3112 93.3475C65.9162 93.3475 65.5462 93.4425 65.2012 93.6325C64.8612 93.8225 64.5462 94.08 64.2562 94.405V100H62.9212ZM74.3311 92.2825C74.8861 92.2825 75.3861 92.375 75.8311 92.56C76.2811 92.745 76.6611 93.0075 76.9711 93.3475C77.2861 93.6875 77.5261 94.1 77.6911 94.585C77.8611 95.065 77.9461 95.6025 77.9461 96.1975C77.9461 96.7975 77.8611 97.3375 77.6911 97.8175C77.5261 98.2975 77.2861 98.7075 76.9711 99.0475C76.6611 99.3875 76.2811 99.65 75.8311 99.835C75.3861 100.015 74.8861 100.105 74.3311 100.105C73.7761 100.105 73.2736 100.015 72.8236 99.835C72.3786 99.65 71.9986 99.3875 71.6836 99.0475C71.3686 98.7075 71.1261 98.2975 70.9561 97.8175C70.7861 97.3375 70.7011 96.7975 70.7011 96.1975C70.7011 95.6025 70.7861 95.065 70.9561 94.585C71.1261 94.1 71.3686 93.6875 71.6836 93.3475C71.9986 93.0075 72.3786 92.745 72.8236 92.56C73.2736 92.375 73.7761 92.2825 74.3311 92.2825ZM74.3311 99.0625C75.0811 99.0625 75.6411 98.8125 76.0111 98.3125C76.3811 97.8075 76.5661 97.105 76.5661 96.205C76.5661 95.3 76.3811 94.595 76.0111 94.09C75.6411 93.585 75.0811 93.3325 74.3311 93.3325C73.9511 93.3325 73.6211 93.3975 73.3411 93.5275C73.0611 93.6575 72.8261 93.845 72.6361 94.09C72.4511 94.335 72.3111 94.6375 72.2161 94.9975C72.1261 95.3525 72.0811 95.755 72.0811 96.205C72.0811 96.655 72.1261 97.0575 72.2161 97.4125C72.3111 97.7675 72.4511 98.0675 72.6361 98.3125C72.8261 98.5525 73.0611 98.7375 73.3411 98.8675C73.6211 98.9975 73.9511 99.0625 74.3311 99.0625ZM83.9411 93.655C83.8811 93.765 83.7886 93.82 83.6636 93.82C83.5886 93.82 83.5036 93.7925 83.4086 93.7375C83.3136 93.6825 83.1961 93.6225 83.0561 93.5575C82.9211 93.4875 82.7586 93.425 82.5686 93.37C82.3786 93.31 82.1536 93.28 81.8936 93.28C81.6686 93.28 81.4661 93.31 81.2861 93.37C81.1061 93.425 80.9511 93.5025 80.8211 93.6025C80.6961 93.7025 80.5986 93.82 80.5286 93.955C80.4636 94.085 80.4311 94.2275 80.4311 94.3825C80.4311 94.5775 80.4861 94.74 80.5961 94.87C80.7111 95 80.8611 95.1125 81.0461 95.2075C81.2311 95.3025 81.4411 95.3875 81.6761 95.4625C81.9111 95.5325 82.1511 95.61 82.3961 95.695C82.6461 95.775 82.8886 95.865 83.1236 95.965C83.3586 96.065 83.5686 96.19 83.7536 96.34C83.9386 96.49 84.0861 96.675 84.1961 96.895C84.3111 97.11 84.3686 97.37 84.3686 97.675C84.3686 98.025 84.3061 98.35 84.1811 98.65C84.0561 98.945 83.8711 99.2025 83.6261 99.4225C83.3811 99.6375 83.0811 99.8075 82.7261 99.9325C82.3711 100.058 81.9611 100.12 81.4961 100.12C80.9661 100.12 80.4861 100.035 80.0561 99.865C79.6261 99.69 79.2611 99.4675 78.9611 99.1975L79.2761 98.6875C79.3161 98.6225 79.3636 98.5725 79.4186 98.5375C79.4736 98.5025 79.5461 98.485 79.6361 98.485C79.7261 98.485 79.8211 98.52 79.9211 98.59C80.0211 98.66 80.1411 98.7375 80.2811 98.8225C80.4261 98.9075 80.5986 98.985 80.7986 99.055C81.0036 99.125 81.2586 99.16 81.5636 99.16C81.8236 99.16 82.0511 99.1275 82.2461 99.0625C82.4411 98.9925 82.6036 98.9 82.7336 98.785C82.8636 98.67 82.9586 98.5375 83.0186 98.3875C83.0836 98.2375 83.1161 98.0775 83.1161 97.9075C83.1161 97.6975 83.0586 97.525 82.9436 97.39C82.8336 97.25 82.6861 97.1325 82.5011 97.0375C82.3161 96.9375 82.1036 96.8525 81.8636 96.7825C81.6286 96.7075 81.3861 96.63 81.1361 96.55C80.8911 96.47 80.6486 96.38 80.4086 96.28C80.1736 96.175 79.9636 96.045 79.7786 95.89C79.5936 95.735 79.4436 95.545 79.3286 95.32C79.2186 95.09 79.1636 94.8125 79.1636 94.4875C79.1636 94.1975 79.2236 93.92 79.3436 93.655C79.4636 93.385 79.6386 93.15 79.8686 92.95C80.0986 92.745 80.3811 92.5825 80.7161 92.4625C81.0511 92.3425 81.4336 92.2825 81.8636 92.2825C82.3636 92.2825 82.8111 92.3625 83.2061 92.5225C83.6061 92.6775 83.9511 92.8925 84.2411 93.1675L83.9411 93.655ZM25.8633 114.12C25.2633 114.12 24.8008 113.952 24.4758 113.617C24.1558 113.282 23.9958 112.8 23.9958 112.17V107.52H23.0808C23.0008 107.52 22.9333 107.497 22.8783 107.452C22.8233 107.402 22.7958 107.327 22.7958 107.227V106.695L24.0408 106.537L24.3483 104.19C24.3583 104.115 24.3908 104.055 24.4458 104.01C24.5008 103.96 24.5708 103.935 24.6558 103.935H25.3308V106.552H27.5058V107.52H25.3308V112.08C25.3308 112.4 25.4083 112.637 25.5633 112.792C25.7183 112.947 25.9183 113.025 26.1633 113.025C26.3033 113.025 26.4233 113.007 26.5233 112.972C26.6283 112.932 26.7183 112.89 26.7933 112.845C26.8683 112.8 26.9308 112.76 26.9808 112.725C27.0358 112.685 27.0833 112.665 27.1233 112.665C27.1933 112.665 27.2558 112.707 27.3108 112.792L27.7008 113.43C27.4708 113.645 27.1933 113.815 26.8683 113.94C26.5433 114.06 26.2083 114.12 25.8633 114.12ZM30.3115 106.402V111.247C30.3115 111.822 30.444 112.267 30.709 112.582C30.974 112.897 31.374 113.055 31.909 113.055C32.299 113.055 32.6665 112.962 33.0115 112.777C33.3565 112.592 33.674 112.335 33.964 112.005V106.402H35.299V114H34.504C34.314 114 34.194 113.907 34.144 113.722L34.039 112.905C33.709 113.27 33.339 113.565 32.929 113.79C32.519 114.01 32.049 114.12 31.519 114.12C31.104 114.12 30.7365 114.053 30.4165 113.917C30.1015 113.777 29.8365 113.582 29.6215 113.332C29.4065 113.082 29.244 112.78 29.134 112.425C29.029 112.07 28.9765 111.677 28.9765 111.247V106.402H30.3115ZM41.8415 107.655C41.7815 107.765 41.689 107.82 41.564 107.82C41.489 107.82 41.404 107.792 41.309 107.737C41.214 107.682 41.0965 107.622 40.9565 107.557C40.8215 107.487 40.659 107.425 40.469 107.37C40.279 107.31 40.054 107.28 39.794 107.28C39.569 107.28 39.3665 107.31 39.1865 107.37C39.0065 107.425 38.8515 107.502 38.7215 107.602C38.5965 107.702 38.499 107.82 38.429 107.955C38.364 108.085 38.3315 108.227 38.3315 108.382C38.3315 108.577 38.3865 108.74 38.4965 108.87C38.6115 109 38.7615 109.112 38.9465 109.207C39.1315 109.302 39.3415 109.387 39.5765 109.462C39.8115 109.532 40.0515 109.61 40.2965 109.695C40.5465 109.775 40.789 109.865 41.024 109.965C41.259 110.065 41.469 110.19 41.654 110.34C41.839 110.49 41.9865 110.675 42.0965 110.895C42.2115 111.11 42.269 111.37 42.269 111.675C42.269 112.025 42.2065 112.35 42.0815 112.65C41.9565 112.945 41.7715 113.202 41.5265 113.422C41.2815 113.637 40.9815 113.807 40.6265 113.932C40.2715 114.058 39.8615 114.12 39.3965 114.12C38.8665 114.12 38.3865 114.035 37.9565 113.865C37.5265 113.69 37.1615 113.467 36.8615 113.197L37.1765 112.687C37.2165 112.622 37.264 112.572 37.319 112.537C37.374 112.502 37.4465 112.485 37.5365 112.485C37.6265 112.485 37.7215 112.52 37.8215 112.59C37.9215 112.66 38.0415 112.737 38.1815 112.822C38.3265 112.907 38.499 112.985 38.699 113.055C38.904 113.125 39.159 113.16 39.464 113.16C39.724 113.16 39.9515 113.127 40.1465 113.062C40.3415 112.992 40.504 112.9 40.634 112.785C40.764 112.67 40.859 112.537 40.919 112.387C40.984 112.237 41.0165 112.077 41.0165 111.907C41.0165 111.697 40.959 111.525 40.844 111.39C40.734 111.25 40.5865 111.132 40.4015 111.037C40.2165 110.937 40.004 110.852 39.764 110.782C39.529 110.707 39.2865 110.63 39.0365 110.55C38.7915 110.47 38.549 110.38 38.309 110.28C38.074 110.175 37.864 110.045 37.679 109.89C37.494 109.735 37.344 109.545 37.229 109.32C37.119 109.09 37.064 108.812 37.064 108.487C37.064 108.197 37.124 107.92 37.244 107.655C37.364 107.385 37.539 107.15 37.769 106.95C37.999 106.745 38.2815 106.582 38.6165 106.463C38.9515 106.342 39.334 106.282 39.764 106.282C40.264 106.282 40.7115 106.362 41.1065 106.522C41.5065 106.677 41.8515 106.892 42.1415 107.167L41.8415 107.655ZM52.2433 114C52.0533 114 51.9333 113.907 51.8833 113.722L51.7633 112.8C51.4383 113.195 51.0658 113.512 50.6458 113.753C50.2308 113.988 49.7533 114.105 49.2133 114.105C48.7783 114.105 48.3833 114.022 48.0283 113.857C47.6733 113.687 47.3708 113.44 47.1208 113.115C46.8708 112.79 46.6783 112.385 46.5433 111.9C46.4083 111.415 46.3408 110.857 46.3408 110.227C46.3408 109.667 46.4158 109.147 46.5658 108.667C46.7158 108.182 46.9308 107.762 47.2108 107.407C47.4958 107.052 47.8408 106.775 48.2458 106.575C48.6508 106.37 49.1108 106.267 49.6258 106.267C50.0908 106.267 50.4883 106.347 50.8183 106.507C51.1483 106.662 51.4433 106.882 51.7033 107.167V102.952H53.0383V114H52.2433ZM49.6558 113.025C50.0908 113.025 50.4708 112.925 50.7958 112.725C51.1258 112.525 51.4283 112.242 51.7033 111.877V108.202C51.4583 107.872 51.1883 107.642 50.8933 107.512C50.6033 107.377 50.2808 107.31 49.9258 107.31C49.2158 107.31 48.6708 107.562 48.2908 108.067C47.9108 108.572 47.7208 109.292 47.7208 110.227C47.7208 110.722 47.7633 111.147 47.8483 111.502C47.9333 111.852 48.0583 112.142 48.2233 112.372C48.3883 112.597 48.5908 112.762 48.8308 112.867C49.0708 112.972 49.3458 113.025 49.6558 113.025ZM56.4297 106.402V111.247C56.4297 111.822 56.5622 112.267 56.8272 112.582C57.0922 112.897 57.4922 113.055 58.0272 113.055C58.4172 113.055 58.7847 112.962 59.1297 112.777C59.4747 112.592 59.7922 112.335 60.0822 112.005V106.402H61.4172V114H60.6222C60.4322 114 60.3122 113.907 60.2622 113.722L60.1572 112.905C59.8272 113.27 59.4572 113.565 59.0472 113.79C58.6372 114.01 58.1672 114.12 57.6372 114.12C57.2222 114.12 56.8547 114.053 56.5347 113.917C56.2197 113.777 55.9547 113.582 55.7397 113.332C55.5247 113.082 55.3622 112.78 55.2522 112.425C55.1472 112.07 55.0947 111.677 55.0947 111.247V106.402H56.4297ZM68.9571 114C68.7671 114 68.6471 113.907 68.5971 113.722L68.4771 112.8C68.1521 113.195 67.7796 113.512 67.3596 113.753C66.9446 113.988 66.4671 114.105 65.9271 114.105C65.4921 114.105 65.0971 114.022 64.7421 113.857C64.3871 113.687 64.0846 113.44 63.8346 113.115C63.5846 112.79 63.3921 112.385 63.2571 111.9C63.1221 111.415 63.0546 110.857 63.0546 110.227C63.0546 109.667 63.1296 109.147 63.2796 108.667C63.4296 108.182 63.6446 107.762 63.9246 107.407C64.2096 107.052 64.5546 106.775 64.9596 106.575C65.3646 106.37 65.8246 106.267 66.3396 106.267C66.8046 106.267 67.2021 106.347 67.5321 106.507C67.8621 106.662 68.1571 106.882 68.4171 107.167V102.952H69.7521V114H68.9571ZM66.3696 113.025C66.8046 113.025 67.1846 112.925 67.5096 112.725C67.8396 112.525 68.1421 112.242 68.4171 111.877V108.202C68.1721 107.872 67.9021 107.642 67.6071 107.512C67.3171 107.377 66.9946 107.31 66.6396 107.31C65.9296 107.31 65.3846 107.562 65.0046 108.067C64.6246 108.572 64.4346 109.292 64.4346 110.227C64.4346 110.722 64.4771 111.147 64.5621 111.502C64.6471 111.852 64.7721 112.142 64.9371 112.372C65.1021 112.597 65.3046 112.762 65.5446 112.867C65.7846 112.972 66.0596 113.025 66.3696 113.025ZM77.5686 114H76.9761C76.8461 114 76.7411 113.98 76.6611 113.94C76.5811 113.9 76.5286 113.815 76.5036 113.685L76.3536 112.98C76.1536 113.16 75.9586 113.322 75.7686 113.467C75.5786 113.607 75.3786 113.727 75.1686 113.827C74.9586 113.922 74.7336 113.995 74.4936 114.045C74.2586 114.095 73.9961 114.12 73.7061 114.12C73.4111 114.12 73.1336 114.08 72.8736 114C72.6186 113.915 72.3961 113.79 72.2061 113.625C72.0161 113.46 71.8636 113.252 71.7486 113.002C71.6386 112.747 71.5836 112.447 71.5836 112.102C71.5836 111.802 71.6661 111.515 71.8311 111.24C71.9961 110.96 72.2611 110.712 72.6261 110.497C72.9961 110.282 73.4786 110.107 74.0736 109.972C74.6686 109.833 75.3961 109.752 76.2561 109.732V109.14C76.2561 108.55 76.1286 108.105 75.8736 107.805C75.6236 107.5 75.2511 107.347 74.7561 107.347C74.4311 107.347 74.1561 107.39 73.9311 107.475C73.7111 107.555 73.5186 107.647 73.3536 107.752C73.1936 107.852 73.0536 107.945 72.9336 108.03C72.8186 108.11 72.7036 108.15 72.5886 108.15C72.4986 108.15 72.4186 108.127 72.3486 108.082C72.2836 108.032 72.2311 107.972 72.1911 107.902L71.9511 107.475C72.3711 107.07 72.8236 106.767 73.3086 106.567C73.7936 106.367 74.3311 106.267 74.9211 106.267C75.3461 106.267 75.7236 106.337 76.0536 106.477C76.3836 106.617 76.6611 106.812 76.8861 107.062C77.1111 107.312 77.2811 107.615 77.3961 107.97C77.5111 108.325 77.5686 108.715 77.5686 109.14V114ZM74.1036 113.182C74.3386 113.182 74.5536 113.16 74.7486 113.115C74.9436 113.065 75.1261 112.997 75.2961 112.912C75.4711 112.822 75.6361 112.715 75.7911 112.59C75.9511 112.465 76.1061 112.322 76.2561 112.162V110.58C75.6411 110.6 75.1186 110.65 74.6886 110.73C74.2586 110.805 73.9086 110.905 73.6386 111.03C73.3686 111.155 73.1711 111.302 73.0461 111.472C72.9261 111.642 72.8661 111.832 72.8661 112.042C72.8661 112.242 72.8986 112.415 72.9636 112.56C73.0286 112.705 73.1161 112.825 73.2261 112.92C73.3361 113.01 73.4661 113.077 73.6161 113.122C73.7661 113.162 73.9286 113.182 74.1036 113.182ZM83.9411 107.655C83.8811 107.765 83.7886 107.82 83.6636 107.82C83.5886 107.82 83.5036 107.792 83.4086 107.737C83.3136 107.682 83.1961 107.622 83.0561 107.557C82.9211 107.487 82.7586 107.425 82.5686 107.37C82.3786 107.31 82.1536 107.28 81.8936 107.28C81.6686 107.28 81.4661 107.31 81.2861 107.37C81.1061 107.425 80.9511 107.502 80.8211 107.602C80.6961 107.702 80.5986 107.82 80.5286 107.955C80.4636 108.085 80.4311 108.227 80.4311 108.382C80.4311 108.577 80.4861 108.74 80.5961 108.87C80.7111 109 80.8611 109.112 81.0461 109.207C81.2311 109.302 81.4411 109.387 81.6761 109.462C81.9111 109.532 82.1511 109.61 82.3961 109.695C82.6461 109.775 82.8886 109.865 83.1236 109.965C83.3586 110.065 83.5686 110.19 83.7536 110.34C83.9386 110.49 84.0861 110.675 84.1961 110.895C84.3111 111.11 84.3686 111.37 84.3686 111.675C84.3686 112.025 84.3061 112.35 84.1811 112.65C84.0561 112.945 83.8711 113.202 83.6261 113.422C83.3811 113.637 83.0811 113.807 82.7261 113.932C82.3711 114.058 81.9611 114.12 81.4961 114.12C80.9661 114.12 80.4861 114.035 80.0561 113.865C79.6261 113.69 79.2611 113.467 78.9611 113.197L79.2761 112.687C79.3161 112.622 79.3636 112.572 79.4186 112.537C79.4736 112.502 79.5461 112.485 79.6361 112.485C79.7261 112.485 79.8211 112.52 79.9211 112.59C80.0211 112.66 80.1411 112.737 80.2811 112.822C80.4261 112.907 80.5986 112.985 80.7986 113.055C81.0036 113.125 81.2586 113.16 81.5636 113.16C81.8236 113.16 82.0511 113.127 82.2461 113.062C82.4411 112.992 82.6036 112.9 82.7336 112.785C82.8636 112.67 82.9586 112.537 83.0186 112.387C83.0836 112.237 83.1161 112.077 83.1161 111.907C83.1161 111.697 83.0586 111.525 82.9436 111.39C82.8336 111.25 82.6861 111.132 82.5011 111.037C82.3161 110.937 82.1036 110.852 81.8636 110.782C81.6286 110.707 81.3861 110.63 81.1361 110.55C80.8911 110.47 80.6486 110.38 80.4086 110.28C80.1736 110.175 79.9636 110.045 79.7786 109.89C79.5936 109.735 79.4436 109.545 79.3286 109.32C79.2186 109.09 79.1636 108.812 79.1636 108.487C79.1636 108.197 79.2236 107.92 79.3436 107.655C79.4636 107.385 79.6386 107.15 79.8686 106.95C80.0986 106.745 80.3811 106.582 80.7161 106.463C81.0511 106.342 81.4336 106.282 81.8636 106.282C82.3636 106.282 82.8111 106.362 83.2061 106.522C83.6061 106.677 83.9511 106.892 84.2411 107.167L83.9411 107.655Z"
        fill="white" />
    <defs>
        <filter id="filter0_d_352_855" x="0" y="0" width="99" height="138"
            filterUnits="userSpaceOnUse" color-interpolation-filters="sRGB">
            <feFlood flood-opacity="0" result="BackgroundImageFix" />
            <feColorMatrix in="SourceAlpha" type="matrix"
                values="0 0 0 0 0 0 0 0 0 0 0 0 0 0 0 0 0 0 127 0" result="hardAlpha" />
            <feOffset dy="4" />
            <feGaussianBlur stdDeviation="2" />
            <feComposite in2="hardAlpha" operator="out" />
            <feColorMatrix type="matrix" values="0 0 0 0 0 0 0 0 0 0 0 0 0 0 0 0 0 0 0.25 0" />
            <feBlend mode="normal" in2="BackgroundImageFix" result="effect1_dropShadow_352_855" />
            <feBlend mode="normal" in="SourceGraphic" in2="effect1_dropShadow_352_855"
                result="shape" />
        </filter>
    </defs>
</svg>
    