<svg width="114" height="138" viewBox="0 0 114 138" fill="none" xmlns="http://www.w3.org/2000/svg">
    <g filter="url(#filter0_d_0_1)">
        <path
            d="M4 54.9273C4 24.5918 28.5918 0 58.9273 0C87.134 0 110 22.866 110 51.0727V130H34C17.4315 130 4 116.569 4 100V54.9273Z"
            fill="#D91E3E" />
    </g>
    <path
        d="M80.9933 53.4859C80.9933 44.7862 81.01 36.0866 80.9833 27.3869C80.9975 25.8304 80.5072 24.3109 79.5855 23.0555C78.6637 21.8001 77.3601 20.876 75.8692 20.4212C74.9643 20.1499 74.0236 20.0164 73.0788 20.0253C62.3933 19.9986 51.7073 19.993 41.0208 20.0086C36.2061 20.0086 33.0226 23.1824 33.0126 28.0117C32.9958 36.1289 32.9958 44.245 33.0126 52.36C33.0126 61.2534 33.0126 70.1474 33.0126 79.0419C33.0126 81.9217 34.0698 84.2336 36.4972 85.8422C37.6339 86.6058 38.9749 87.0093 40.3449 86.9998C51.4765 86.9909 62.608 86.9909 73.7396 86.9998C77.4551 86.9998 80.7022 83.963 80.9481 80.2563C80.99 79.6466 81 79.0335 81 78.4188C81 70.1089 81 61.7985 81 53.4875L80.9933 53.4859ZM78.5023 53.3906C78.5023 61.95 78.5023 70.5087 78.5023 79.0669C78.5023 82.4178 76.5149 84.4658 73.1875 84.4725C62.4184 84.4925 51.6504 84.4858 40.8836 84.4524C39.9162 84.452 38.9621 84.2272 38.0965 83.7959C36.3266 82.8655 35.5353 81.2435 35.5336 79.2507C35.5336 62.1599 35.5336 45.0696 35.5336 27.9799C35.5336 27.8413 35.5336 27.701 35.5336 27.5623C35.7009 24.4971 37.7586 22.5326 40.825 22.5326C51.6488 22.5326 62.4725 22.5326 73.2962 22.5326C76.3694 22.5326 78.499 24.6558 78.5007 27.711C78.5051 36.2714 78.5057 44.8313 78.5023 53.3906Z"
        fill="white" />
    <path
        d="M57.5395 42.9932C61.5431 42.9932 65.5473 42.9932 69.552 42.9932C72.1903 42.9932 73.9514 41.2883 73.9794 38.6694C74.0069 36.1636 74.0069 33.6572 73.9794 31.1502C73.9825 30.0599 73.5503 29.0128 72.7777 28.2382C72.005 27.4637 70.9548 27.0249 69.8571 27.018C61.6289 26.994 53.4013 26.994 45.1742 27.018C43.1097 27.018 41.4558 28.4806 41.1129 30.4984C41.0531 30.8227 41.02 31.1514 41.0139 31.4811C41.0139 33.905 40.9826 36.3306 41.0139 38.7546C41.0535 41.2719 42.836 42.9949 45.3655 42.9998C49.4218 43.0014 53.4815 42.9932 57.5395 42.9932ZM57.5873 40.4792C53.6662 40.4792 49.7456 40.4792 45.8255 40.4792C44.0611 40.4792 43.4956 39.9207 43.4956 38.2026C43.4956 35.9703 43.4956 33.7363 43.4956 31.5023C43.4956 30.1184 44.1057 29.5009 45.5007 29.5009C53.4782 29.4933 61.4557 29.4933 69.4333 29.5009C70.8827 29.5009 71.4862 30.1086 71.4895 31.5318C71.4961 33.8248 71.4961 36.1128 71.4895 38.3959C71.4895 39.9404 70.9305 40.4808 69.3459 40.4825L57.5873 40.4792Z"
        fill="white" />
    <path
        d="M55.9617 54.1226C56.064 53.1271 55.9608 52.1213 55.6586 51.1671C55.3563 50.2129 54.8613 49.3305 54.2041 48.5745C53.0622 47.2583 51.6514 46.3437 49.8988 46.1615C48.5334 45.996 47.1556 45.9576 45.783 46.0467C42.2424 46.3403 39.6508 48.6268 39.1636 52.1416C38.8962 53.9979 38.9569 55.8865 39.343 57.7218C40.0382 60.8216 42.8954 62.8414 46.1806 62.9747C47.023 63.0084 47.866 63.0084 48.7096 62.9747C52.8829 62.8296 55.9126 59.718 55.96 55.5501C55.9651 55.157 55.9617 54.7638 55.9617 54.1226ZM47.1787 48.5542C47.9297 48.5542 48.4356 48.5373 48.9414 48.5542C51.1557 48.6352 53.2449 50.596 53.3701 52.7727C53.4451 53.8926 53.4406 55.0164 53.3566 56.1357C53.2212 57.7438 52.4143 58.9907 50.9882 59.8007C49.344 60.7372 47.5474 60.4757 45.7949 60.3575C44.6904 60.2755 43.6535 59.7959 42.877 59.0081C42.1006 58.2203 41.6376 57.1779 41.5742 56.0749C41.5116 55.0136 41.5472 53.9454 41.5861 52.8807C41.6267 51.7704 42.1105 50.8305 42.8616 50.0256C44.1117 48.6909 45.6968 48.4007 47.1787 48.5508V48.5542Z"
        fill="white" />
    <path
        d="M55.9662 73.2745C56.1357 71.2798 55.6833 69.297 54.2497 67.6059C53.1755 66.3423 51.8504 65.4009 50.2 65.2075C48.5903 65.0209 46.9297 64.9107 45.3268 65.0939C42.0531 65.467 39.6351 67.7569 39.1691 71.0186C38.9252 72.8018 38.9452 74.6113 39.2284 76.3886C39.6741 79.2212 42.1971 81.5687 45.0455 81.8605C46.8433 82.0454 48.7241 82.0793 50.4931 81.7587C53.5703 81.2041 55.8408 78.1968 55.9679 74.974C55.9832 74.472 55.9662 73.9631 55.9662 73.2745ZM47.4753 79.4791C47.0805 79.4791 46.6874 79.4892 46.2892 79.4791C43.5781 79.3943 41.6362 77.4793 41.5447 74.7637C41.5072 73.8343 41.5179 72.9035 41.5769 71.9752C41.6455 70.7943 42.1553 69.6824 43.0051 68.8603C43.8549 68.0383 44.9824 67.5663 46.1638 67.5381C47.0348 67.5092 47.9108 67.5075 48.7817 67.5381C50.0204 67.5738 51.1963 68.0922 52.059 68.9827C52.9217 69.8732 53.4031 71.0655 53.4008 72.306C53.4008 73.1795 53.4178 74.0547 53.3907 74.9266C53.3639 75.921 53.0183 76.8805 52.405 77.6633C51.7918 78.4461 50.9432 79.0107 49.9848 79.2738C49.1816 79.4841 48.3047 79.4791 47.4753 79.4791Z"
        fill="white" />
    <path
        d="M67.5568 62.9768C69.7361 63.1066 71.7646 62.7156 73.4508 61.214C74.9946 59.8405 75.8843 58.1366 75.9453 56.0721C75.986 54.7037 76.086 53.2982 75.8386 51.9668C75.2149 48.6248 72.7018 46.4323 69.2464 46.0885C68.0688 45.9705 66.8822 45.9705 65.7046 46.0885C62.117 46.4592 59.5818 48.7849 59.1429 52.3493C58.91 54.0944 58.9621 55.8654 59.2971 57.594C59.936 60.6275 62.6864 62.7189 65.8689 62.9684C66.4282 63.0155 66.9942 62.9768 67.5568 62.9768ZM61.5544 54.5604C61.5544 54.1695 61.5459 53.7768 61.5544 53.3807C61.6205 50.5815 63.6557 48.5895 66.4553 48.5827C67.2721 48.5827 68.0906 48.5642 68.9058 48.5827C71.224 48.6451 73.2847 50.6051 73.4 52.9089C73.4548 53.9723 73.4485 55.038 73.3813 56.1008C73.2695 57.7574 72.4391 59.0079 70.9919 59.8287C69.3718 60.7488 67.6026 60.4741 65.8706 60.3781C64.0065 60.2753 62.6711 59.2691 61.995 57.5872C61.6154 56.662 61.5 55.5 61.5544 54.5604Z"
        fill="white" />
    <path
        d="M75.9602 73.379C76.1466 71.2228 75.6958 69.2505 74.2471 67.5751C73.1644 66.3248 71.8411 65.3817 70.189 65.2029C68.5777 65.024 66.9155 64.9059 65.3176 65.0999C61.9424 65.5116 59.5431 67.8906 59.1432 71.265C58.9143 73.0127 58.96 74.7852 59.2788 76.5189C59.8837 79.5188 62.5083 81.5805 65.7446 81.9095C66.922 82.0302 68.1086 82.0302 69.2859 81.9095C73.3101 81.4793 75.9195 78.5351 75.9602 74.4858C75.9636 74.1079 75.9602 73.7485 75.9602 73.379ZM61.5612 73.5224C61.5612 72.991 61.534 72.4561 61.5612 71.9247C61.6933 69.7836 63.3725 67.8754 65.5125 67.6189C66.77 67.4696 68.0404 67.4628 69.2995 67.5987C71.6632 67.8551 73.366 69.8309 73.3982 72.1946C73.4135 73.1209 73.427 74.0505 73.3762 74.9718C73.3218 76.1321 72.8316 77.2298 72.0028 78.0472C71.174 78.8647 70.0671 79.3423 68.9013 79.3855C67.9457 79.4243 66.9849 79.4344 66.031 79.3855C64.1892 79.2809 62.7727 78.3917 62.0542 76.7163C61.6408 75.7394 61.5 74.4593 61.5612 73.5224Z"
        fill="white" />
    <path
        d="M47.5421 55.9944C48.5367 55.9944 49.5296 56.0063 50.5242 55.9944C51.3885 55.9805 51.9783 55.3826 51.9994 54.5384C52.0205 53.6942 51.503 53.0546 50.6615 53.0348C48.5572 52.9884 46.4524 52.9884 44.347 53.0348C43.4932 53.0546 42.9862 53.7022 43.0003 54.5265C43.0144 55.3508 43.6217 55.9785 44.472 55.9924C45.4948 56.0083 46.5193 55.9944 47.5421 55.9944Z"
        fill="white" />
    <path
        d="M47.5376 72.9912C48.5325 72.9912 49.5255 73.011 50.5204 72.9912C51.4008 72.9673 51.9801 72.3616 51.9995 71.5294C52.0206 70.6475 51.4202 70.0179 50.4922 70.0119C48.5037 69.996 46.5158 69.996 44.5284 70.0119C43.6005 70.0119 42.9948 70.6336 43 71.5115C43.0053 72.3894 43.6198 72.9713 44.5548 72.9912C45.5497 73.0071 46.5428 72.9912 47.5376 72.9912Z"
        fill="white" />
    <path
        d="M47.5261 76.9925C48.5212 76.9925 49.5162 77.0083 50.5112 76.9925C51.3829 76.9748 51.9746 76.382 51.9993 75.5529C52.0239 74.6903 51.4076 74.0226 50.5059 74.0148C48.517 73.9951 46.5276 73.9951 44.5376 74.0148C43.6289 74.0148 43.0125 74.6509 43.0002 75.5135C42.9879 76.3761 43.6183 76.9787 44.5411 76.9965C45.5361 77.0063 46.5311 76.9925 47.5261 76.9925Z"
        fill="white" />
    <path
        d="M68.8244 53.2432C68.8244 52.5405 68.8453 51.9694 68.8244 51.4C68.7879 50.5952 68.268 50.0362 67.5708 50.0016C66.8737 49.967 66.2999 50.4879 66.1991 51.2841C66.1226 51.9002 66.3017 52.7119 65.9696 53.0822C65.6827 53.4024 64.8308 53.1913 64.231 53.2692C63.4868 53.3643 62.9983 53.7555 63 54.5654C63 55.2733 63.5668 55.8011 64.3579 55.8427C64.6465 55.8583 64.9368 55.8427 65.2272 55.8427C65.5175 55.8427 65.7905 55.8669 66.1765 55.8842C66.1765 56.4709 66.1556 57.0092 66.1765 57.5457C66.2199 58.4664 66.7572 59.0202 67.5482 58.9994C68.2976 58.9804 68.7896 58.43 68.8209 57.5439C68.8383 57.0074 68.8209 56.4674 68.8209 55.8409C69.4625 55.8409 70.0049 55.8513 70.5474 55.8409C71.4289 55.8202 71.9748 55.3373 71.9991 54.5758C72.0235 53.8143 71.5384 53.3055 70.6187 53.2467C70.0414 53.2138 69.4781 53.2432 68.8244 53.2432Z"
        fill="white" />
    <path
        d="M67.732 75.2281C68.0927 75.6854 68.41 76.1876 68.8241 76.5917C69.3868 77.1422 70.1115 77.1189 70.6041 76.625C71.1234 76.1028 71.1467 75.4609 70.5857 74.8522C70.1916 74.4281 69.7174 74.0806 69.1847 73.6166C69.7124 73.0645 70.1282 72.6371 70.5323 72.2014C71.1267 71.5595 71.1417 70.9308 70.5857 70.3721C70.0848 69.8732 69.3935 69.8599 68.814 70.4303C68.4033 70.836 68.086 71.3366 67.6786 71.8571C67.0641 71.2734 66.6767 70.8943 66.276 70.5267C65.6181 69.9181 64.9402 69.8466 64.4392 70.3238C63.8548 70.8643 63.8865 71.5794 64.5378 72.2945C64.8884 72.6803 65.2541 73.0545 65.8485 73.6815C65.3593 74.059 64.8617 74.3699 64.4576 74.7757C63.8598 75.3777 63.8632 76.0878 64.3775 76.6217C64.865 77.1206 65.6214 77.1206 66.2226 76.5235C66.5975 76.1155 66.9493 75.6869 67.2762 75.2397L67.732 75.2281Z"
        fill="white" />
    <path
        d="M20.0829 102.928C20.1576 102.928 20.2253 102.958 20.2859 103.019L20.8179 103.6C20.4073 104.076 19.9079 104.447 19.3199 104.713C18.7366 104.979 18.0319 105.112 17.2059 105.112C16.4826 105.112 15.8269 104.988 15.2389 104.741C14.6509 104.489 14.1493 104.139 13.7339 103.691C13.3186 103.238 12.9966 102.697 12.7679 102.067C12.5393 101.437 12.4249 100.744 12.4249 99.988C12.4249 99.232 12.5463 98.539 12.7889 97.909C13.0363 97.279 13.3816 96.7377 13.8249 96.285C14.2683 95.8323 14.7979 95.4823 15.4139 95.235C16.0346 94.983 16.7183 94.857 17.4649 94.857C18.2023 94.857 18.8369 94.9713 19.3689 95.2C19.9056 95.4287 20.3816 95.739 20.7969 96.131L20.3559 96.754C20.3233 96.8007 20.2859 96.8403 20.2439 96.873C20.2019 96.901 20.1413 96.915 20.0619 96.915C20.0013 96.915 19.9359 96.894 19.8659 96.852C19.8006 96.8053 19.7213 96.7493 19.6279 96.684C19.5346 96.6187 19.4249 96.5487 19.2989 96.474C19.1729 96.3993 19.0236 96.3293 18.8509 96.264C18.6783 96.1987 18.4776 96.145 18.2489 96.103C18.0203 96.0563 17.7566 96.033 17.4579 96.033C16.9213 96.033 16.4289 96.1263 15.9809 96.313C15.5376 96.495 15.1549 96.7563 14.8329 97.097C14.5109 97.4377 14.2589 97.853 14.0769 98.343C13.8996 98.833 13.8109 99.3813 13.8109 99.988C13.8109 100.613 13.8996 101.171 14.0769 101.661C14.2589 102.151 14.5039 102.566 14.8119 102.907C15.1246 103.243 15.4933 103.5 15.9179 103.677C16.3426 103.854 16.7999 103.943 17.2899 103.943C17.5886 103.943 17.8569 103.927 18.0949 103.894C18.3329 103.857 18.5523 103.801 18.7529 103.726C18.9583 103.651 19.1473 103.558 19.3199 103.446C19.4973 103.329 19.6746 103.192 19.8519 103.033C19.9313 102.963 20.0083 102.928 20.0829 102.928ZM27.6089 105H27.0559C26.9346 105 26.8366 104.981 26.7619 104.944C26.6872 104.907 26.6382 104.827 26.6149 104.706L26.4749 104.048C26.2882 104.216 26.1062 104.368 25.9289 104.503C25.7516 104.634 25.5649 104.746 25.3689 104.839C25.1729 104.928 24.9629 104.995 24.7389 105.042C24.5196 105.089 24.2746 105.112 24.0039 105.112C23.7286 105.112 23.4696 105.075 23.2269 105C22.9889 104.921 22.7812 104.804 22.6039 104.65C22.4266 104.496 22.2842 104.302 22.1769 104.069C22.0742 103.831 22.0229 103.551 22.0229 103.229C22.0229 102.949 22.0999 102.681 22.2539 102.424C22.4079 102.163 22.6552 101.932 22.9959 101.731C23.3412 101.53 23.7916 101.367 24.3469 101.241C24.9022 101.11 25.5812 101.036 26.3839 101.017V100.464C26.3839 99.9133 26.2649 99.498 26.0269 99.218C25.7936 98.9333 25.4459 98.791 24.9839 98.791C24.6806 98.791 24.4239 98.8307 24.2139 98.91C24.0086 98.9847 23.8289 99.071 23.6749 99.169C23.5256 99.2623 23.3949 99.3487 23.2829 99.428C23.1756 99.5027 23.0682 99.54 22.9609 99.54C22.8769 99.54 22.8022 99.519 22.7369 99.477C22.6762 99.4303 22.6272 99.3743 22.5899 99.309L22.3659 98.91C22.7579 98.532 23.1802 98.2497 23.6329 98.063C24.0856 97.8763 24.5872 97.783 25.1379 97.783C25.5346 97.783 25.8869 97.8483 26.1949 97.979C26.5029 98.1097 26.7619 98.2917 26.9719 98.525C27.1819 98.7583 27.3406 99.0407 27.4479 99.372C27.5552 99.7033 27.6089 100.067 27.6089 100.464V105ZM24.3749 104.237C24.5942 104.237 24.7949 104.216 24.9769 104.174C25.1589 104.127 25.3292 104.064 25.4879 103.985C25.6512 103.901 25.8052 103.801 25.9499 103.684C26.0992 103.567 26.2439 103.434 26.3839 103.285V101.808C25.8099 101.827 25.3222 101.873 24.9209 101.948C24.5196 102.018 24.1929 102.111 23.9409 102.228C23.6889 102.345 23.5046 102.482 23.3879 102.641C23.2759 102.8 23.2199 102.977 23.2199 103.173C23.2199 103.36 23.2502 103.521 23.3109 103.656C23.3716 103.791 23.4532 103.903 23.5559 103.992C23.6586 104.076 23.7799 104.139 23.9199 104.181C24.0599 104.218 24.2116 104.237 24.3749 104.237ZM30.8826 94.689V105H29.6366V94.689H30.8826ZM37.9156 99.169C37.8783 99.2203 37.841 99.26 37.8036 99.288C37.7663 99.316 37.7126 99.33 37.6426 99.33C37.5726 99.33 37.4956 99.302 37.4116 99.246C37.3323 99.1853 37.2296 99.12 37.1036 99.05C36.9776 98.98 36.8236 98.917 36.6416 98.861C36.4643 98.8003 36.245 98.77 35.9836 98.77C35.6383 98.77 35.3326 98.833 35.0666 98.959C34.8006 99.0803 34.5766 99.2577 34.3946 99.491C34.2173 99.7243 34.082 100.007 33.9886 100.338C33.9 100.669 33.8556 101.04 33.8556 101.451C33.8556 101.88 33.9046 102.263 34.0026 102.599C34.1006 102.93 34.2383 103.21 34.4156 103.439C34.593 103.663 34.8076 103.836 35.0596 103.957C35.3163 104.074 35.6033 104.132 35.9206 104.132C36.224 104.132 36.4736 104.097 36.6696 104.027C36.8656 103.952 37.029 103.871 37.1596 103.782C37.2903 103.693 37.3976 103.614 37.4816 103.544C37.5656 103.469 37.6496 103.432 37.7336 103.432C37.841 103.432 37.9203 103.472 37.9716 103.551L38.3216 104.006C38.0136 104.384 37.6286 104.662 37.1666 104.839C36.7046 105.012 36.217 105.098 35.7036 105.098C35.2603 105.098 34.8473 105.016 34.4646 104.853C34.0866 104.69 33.7576 104.454 33.4776 104.146C33.1976 103.833 32.976 103.451 32.8126 102.998C32.654 102.545 32.5746 102.03 32.5746 101.451C32.5746 100.924 32.647 100.436 32.7916 99.988C32.941 99.54 33.1556 99.155 33.4356 98.833C33.7203 98.5063 34.0703 98.252 34.4856 98.07C34.901 97.888 35.377 97.797 35.9136 97.797C36.4083 97.797 36.847 97.8787 37.2296 98.042C37.6123 98.2007 37.9506 98.427 38.2446 98.721L37.9156 99.169ZM40.6918 97.909V102.431C40.6918 102.968 40.8155 103.383 41.0628 103.677C41.3101 103.971 41.6835 104.118 42.1828 104.118C42.5468 104.118 42.8898 104.032 43.2118 103.859C43.5338 103.686 43.8301 103.446 44.1008 103.138V97.909H45.3468V105H44.6048C44.4275 105 44.3155 104.914 44.2688 104.741L44.1708 103.978C43.8628 104.319 43.5175 104.594 43.1348 104.804C42.7521 105.009 42.3135 105.112 41.8188 105.112C41.4315 105.112 41.0885 105.049 40.7898 104.923C40.4958 104.792 40.2485 104.61 40.0478 104.377C39.8471 104.144 39.6955 103.861 39.5928 103.53C39.4948 103.199 39.4458 102.832 39.4458 102.431V97.909H40.6918ZM48.7791 94.689V105H47.5331V94.689H48.7791ZM56.1831 105H55.6301C55.5088 105 55.4108 104.981 55.3361 104.944C55.2615 104.907 55.2125 104.827 55.1891 104.706L55.0491 104.048C54.8625 104.216 54.6805 104.368 54.5031 104.503C54.3258 104.634 54.1391 104.746 53.9431 104.839C53.7471 104.928 53.5371 104.995 53.3131 105.042C53.0938 105.089 52.8488 105.112 52.5781 105.112C52.3028 105.112 52.0438 105.075 51.8011 105C51.5631 104.921 51.3555 104.804 51.1781 104.65C51.0008 104.496 50.8585 104.302 50.7511 104.069C50.6485 103.831 50.5971 103.551 50.5971 103.229C50.5971 102.949 50.6741 102.681 50.8281 102.424C50.9821 102.163 51.2295 101.932 51.5701 101.731C51.9155 101.53 52.3658 101.367 52.9211 101.241C53.4765 101.11 54.1555 101.036 54.9581 101.017V100.464C54.9581 99.9133 54.8391 99.498 54.6011 99.218C54.3678 98.9333 54.0201 98.791 53.5581 98.791C53.2548 98.791 52.9981 98.8307 52.7881 98.91C52.5828 98.9847 52.4031 99.071 52.2491 99.169C52.0998 99.2623 51.9691 99.3487 51.8571 99.428C51.7498 99.5027 51.6425 99.54 51.5351 99.54C51.4511 99.54 51.3765 99.519 51.3111 99.477C51.2505 99.4303 51.2015 99.3743 51.1641 99.309L50.9401 98.91C51.3321 98.532 51.7545 98.2497 52.2071 98.063C52.6598 97.8763 53.1615 97.783 53.7121 97.783C54.1088 97.783 54.4611 97.8483 54.7691 97.979C55.0771 98.1097 55.3361 98.2917 55.5461 98.525C55.7561 98.7583 55.9148 99.0407 56.0221 99.372C56.1295 99.7033 56.1831 100.067 56.1831 100.464V105ZM52.9491 104.237C53.1685 104.237 53.3691 104.216 53.5511 104.174C53.7331 104.127 53.9035 104.064 54.0621 103.985C54.2255 103.901 54.3795 103.801 54.5241 103.684C54.6735 103.567 54.8181 103.434 54.9581 103.285V101.808C54.3841 101.827 53.8965 101.873 53.4951 101.948C53.0938 102.018 52.7671 102.111 52.5151 102.228C52.2631 102.345 52.0788 102.482 51.9621 102.641C51.8501 102.8 51.7941 102.977 51.7941 103.173C51.7941 103.36 51.8245 103.521 51.8851 103.656C51.9458 103.791 52.0275 103.903 52.1301 103.992C52.2328 104.076 52.3541 104.139 52.4941 104.181C52.6341 104.218 52.7858 104.237 52.9491 104.237ZM63.0618 105C62.8845 105 62.7725 104.914 62.7258 104.741L62.6138 103.88C62.3105 104.249 61.9628 104.545 61.5708 104.769C61.1835 104.988 60.7378 105.098 60.2338 105.098C59.8278 105.098 59.4592 105.021 59.1278 104.867C58.7965 104.708 58.5142 104.477 58.2808 104.174C58.0475 103.871 57.8678 103.493 57.7418 103.04C57.6158 102.587 57.5528 102.067 57.5528 101.479C57.5528 100.956 57.6228 100.471 57.7628 100.023C57.9028 99.5703 58.1035 99.1783 58.3648 98.847C58.6308 98.5157 58.9528 98.2567 59.3308 98.07C59.7088 97.8787 60.1382 97.783 60.6188 97.783C61.0528 97.783 61.4238 97.8577 61.7318 98.007C62.0398 98.1517 62.3152 98.357 62.5578 98.623V94.689H63.8038V105H63.0618ZM60.6468 104.09C61.0528 104.09 61.4075 103.997 61.7108 103.81C62.0188 103.623 62.3012 103.36 62.5578 103.019V99.589C62.3292 99.281 62.0772 99.0663 61.8018 98.945C61.5312 98.819 61.2302 98.756 60.8988 98.756C60.2362 98.756 59.7275 98.9917 59.3728 99.463C59.0182 99.9343 58.8408 100.606 58.8408 101.479C58.8408 101.941 58.8805 102.338 58.9598 102.669C59.0392 102.996 59.1558 103.266 59.3098 103.481C59.4638 103.691 59.6528 103.845 59.8768 103.943C60.1008 104.041 60.3575 104.09 60.6468 104.09ZM68.7611 97.797C69.2791 97.797 69.7458 97.8833 70.1611 98.056C70.5811 98.2287 70.9358 98.4737 71.2251 98.791C71.5191 99.1083 71.7431 99.4933 71.8971 99.946C72.0558 100.394 72.1351 100.896 72.1351 101.451C72.1351 102.011 72.0558 102.515 71.8971 102.963C71.7431 103.411 71.5191 103.794 71.2251 104.111C70.9358 104.428 70.5811 104.673 70.1611 104.846C69.7458 105.014 69.2791 105.098 68.7611 105.098C68.2431 105.098 67.7741 105.014 67.3541 104.846C66.9388 104.673 66.5841 104.428 66.2901 104.111C65.9961 103.794 65.7698 103.411 65.6111 102.963C65.4525 102.515 65.3731 102.011 65.3731 101.451C65.3731 100.896 65.4525 100.394 65.6111 99.946C65.7698 99.4933 65.9961 99.1083 66.2901 98.791C66.5841 98.4737 66.9388 98.2287 67.3541 98.056C67.7741 97.8833 68.2431 97.797 68.7611 97.797ZM68.7611 104.125C69.4611 104.125 69.9838 103.892 70.3291 103.425C70.6745 102.954 70.8471 102.298 70.8471 101.458C70.8471 100.613 70.6745 99.9553 70.3291 99.484C69.9838 99.0127 69.4611 98.777 68.7611 98.777C68.4065 98.777 68.0985 98.8377 67.8371 98.959C67.5758 99.0803 67.3565 99.2553 67.1791 99.484C67.0065 99.7127 66.8758 99.995 66.7871 100.331C66.7031 100.662 66.6611 101.038 66.6611 101.458C66.6611 101.878 66.7031 102.254 66.7871 102.585C66.8758 102.916 67.0065 103.196 67.1791 103.425C67.3565 103.649 67.5758 103.822 67.8371 103.943C68.0985 104.064 68.4065 104.125 68.7611 104.125ZM73.6704 105V97.909H74.3844C74.5198 97.909 74.6131 97.9347 74.6644 97.986C74.7158 98.0373 74.7508 98.126 74.7694 98.252L74.8534 99.358C75.0961 98.8633 75.3948 98.4783 75.7494 98.203C76.1088 97.923 76.5288 97.783 77.0094 97.783C77.2054 97.783 77.3828 97.8063 77.5414 97.853C77.7001 97.895 77.8471 97.9557 77.9824 98.035L77.8214 98.966C77.7888 99.0827 77.7164 99.141 77.6044 99.141C77.5391 99.141 77.4388 99.12 77.3034 99.078C77.1681 99.0313 76.9791 99.008 76.7364 99.008C76.3024 99.008 75.9384 99.134 75.6444 99.386C75.3551 99.638 75.1124 100.004 74.9164 100.485V105H73.6704ZM84.2652 105H83.7122C83.5908 105 83.4928 104.981 83.4182 104.944C83.3435 104.907 83.2945 104.827 83.2712 104.706L83.1312 104.048C82.9445 104.216 82.7625 104.368 82.5852 104.503C82.4078 104.634 82.2212 104.746 82.0252 104.839C81.8292 104.928 81.6192 104.995 81.3952 105.042C81.1758 105.089 80.9308 105.112 80.6602 105.112C80.3848 105.112 80.1258 105.075 79.8832 105C79.6452 104.921 79.4375 104.804 79.2602 104.65C79.0828 104.496 78.9405 104.302 78.8332 104.069C78.7305 103.831 78.6792 103.551 78.6792 103.229C78.6792 102.949 78.7562 102.681 78.9102 102.424C79.0642 102.163 79.3115 101.932 79.6522 101.731C79.9975 101.53 80.4478 101.367 81.0032 101.241C81.5585 101.11 82.2375 101.036 83.0402 101.017V100.464C83.0402 99.9133 82.9212 99.498 82.6832 99.218C82.4498 98.9333 82.1022 98.791 81.6402 98.791C81.3368 98.791 81.0802 98.8307 80.8702 98.91C80.6648 98.9847 80.4852 99.071 80.3312 99.169C80.1818 99.2623 80.0512 99.3487 79.9392 99.428C79.8318 99.5027 79.7245 99.54 79.6172 99.54C79.5332 99.54 79.4585 99.519 79.3932 99.477C79.3325 99.4303 79.2835 99.3743 79.2462 99.309L79.0222 98.91C79.4142 98.532 79.8365 98.2497 80.2892 98.063C80.7418 97.8763 81.2435 97.783 81.7942 97.783C82.1908 97.783 82.5432 97.8483 82.8512 97.979C83.1592 98.1097 83.4182 98.2917 83.6282 98.525C83.8382 98.7583 83.9968 99.0407 84.1042 99.372C84.2115 99.7033 84.2652 100.067 84.2652 100.464V105ZM81.0312 104.237C81.2505 104.237 81.4512 104.216 81.6332 104.174C81.8152 104.127 81.9855 104.064 82.1442 103.985C82.3075 103.901 82.4615 103.801 82.6062 103.684C82.7555 103.567 82.9002 103.434 83.0402 103.285V101.808C82.4662 101.827 81.9785 101.873 81.5772 101.948C81.1758 102.018 80.8492 102.111 80.5972 102.228C80.3452 102.345 80.1608 102.482 80.0442 102.641C79.9322 102.8 79.8762 102.977 79.8762 103.173C79.8762 103.36 79.9065 103.521 79.9672 103.656C80.0278 103.791 80.1095 103.903 80.2122 103.992C80.3148 104.076 80.4362 104.139 80.5762 104.181C80.7162 104.218 80.8678 104.237 81.0312 104.237ZM93.8509 105C93.6736 105 93.5616 104.914 93.5149 104.741L93.4029 103.88C93.0996 104.249 92.7519 104.545 92.3599 104.769C91.9726 104.988 91.5269 105.098 91.0229 105.098C90.6169 105.098 90.2482 105.021 89.9169 104.867C89.5856 104.708 89.3032 104.477 89.0699 104.174C88.8366 103.871 88.6569 103.493 88.5309 103.04C88.4049 102.587 88.3419 102.067 88.3419 101.479C88.3419 100.956 88.4119 100.471 88.5519 100.023C88.6919 99.5703 88.8926 99.1783 89.1539 98.847C89.4199 98.5157 89.7419 98.2567 90.1199 98.07C90.4979 97.8787 90.9272 97.783 91.4079 97.783C91.8419 97.783 92.2129 97.8577 92.5209 98.007C92.8289 98.1517 93.1042 98.357 93.3469 98.623V94.689H94.5929V105H93.8509ZM91.4359 104.09C91.8419 104.09 92.1966 103.997 92.4999 103.81C92.8079 103.623 93.0902 103.36 93.3469 103.019V99.589C93.1182 99.281 92.8662 99.0663 92.5909 98.945C92.3202 98.819 92.0192 98.756 91.6879 98.756C91.0252 98.756 90.5166 98.9917 90.1619 99.463C89.8072 99.9343 89.6299 100.606 89.6299 101.479C89.6299 101.941 89.6696 102.338 89.7489 102.669C89.8282 102.996 89.9449 103.266 90.0989 103.481C90.2529 103.691 90.4419 103.845 90.6659 103.943C90.8899 104.041 91.1466 104.09 91.4359 104.09ZM99.4872 97.797C99.9119 97.797 100.304 97.8693 100.663 98.014C101.023 98.154 101.333 98.3593 101.594 98.63C101.856 98.896 102.059 99.2273 102.203 99.624C102.353 100.016 102.427 100.464 102.427 100.968C102.427 101.164 102.406 101.295 102.364 101.36C102.322 101.425 102.243 101.458 102.126 101.458H97.4082C97.4175 101.906 97.4782 102.296 97.5902 102.627C97.7022 102.958 97.8562 103.236 98.0522 103.46C98.2482 103.679 98.4815 103.845 98.7522 103.957C99.0229 104.064 99.3262 104.118 99.6622 104.118C99.9749 104.118 100.243 104.083 100.467 104.013C100.696 103.938 100.892 103.859 101.055 103.775C101.219 103.691 101.354 103.614 101.461 103.544C101.573 103.469 101.669 103.432 101.748 103.432C101.851 103.432 101.93 103.472 101.986 103.551L102.336 104.006C102.182 104.193 101.998 104.356 101.783 104.496C101.569 104.631 101.338 104.743 101.09 104.832C100.848 104.921 100.596 104.986 100.334 105.028C100.073 105.075 99.8139 105.098 99.5572 105.098C99.0672 105.098 98.6145 105.016 98.1992 104.853C97.7885 104.685 97.4315 104.442 97.1282 104.125C96.8295 103.803 96.5962 103.406 96.4282 102.935C96.2602 102.464 96.1762 101.922 96.1762 101.311C96.1762 100.816 96.2509 100.354 96.4002 99.925C96.5542 99.4957 96.7735 99.1247 97.0582 98.812C97.3429 98.4947 97.6905 98.2473 98.1012 98.07C98.5119 97.888 98.9739 97.797 99.4872 97.797ZM99.5152 98.714C98.9132 98.714 98.4395 98.889 98.0942 99.239C97.7489 99.5843 97.5342 100.065 97.4502 100.681H101.307C101.307 100.392 101.268 100.128 101.188 99.89C101.109 99.6473 100.992 99.4397 100.838 99.267C100.684 99.0897 100.495 98.9543 100.271 98.861C100.052 98.763 99.7999 98.714 99.5152 98.714ZM40.2564 119V111.909H40.9984C41.1757 111.909 41.2877 111.995 41.3344 112.168L41.4324 112.938C41.7404 112.597 42.0834 112.322 42.4614 112.112C42.844 111.902 43.285 111.797 43.7844 111.797C44.1717 111.797 44.5124 111.862 44.8064 111.993C45.105 112.119 45.3524 112.301 45.5484 112.539C45.749 112.772 45.9007 113.055 46.0034 113.386C46.106 113.717 46.1574 114.084 46.1574 114.485V119H44.9114V114.485C44.9114 113.948 44.7877 113.533 44.5404 113.239C44.2977 112.94 43.9244 112.791 43.4204 112.791C43.0517 112.791 42.7064 112.88 42.3844 113.057C42.067 113.234 41.773 113.475 41.5024 113.778V119H40.2564ZM49.1137 111.909V116.431C49.1137 116.968 49.2373 117.383 49.4847 117.677C49.732 117.971 50.1053 118.118 50.6047 118.118C50.9687 118.118 51.3117 118.032 51.6337 117.859C51.9557 117.686 52.252 117.446 52.5227 117.138V111.909H53.7687V119H53.0267C52.8493 119 52.7373 118.914 52.6907 118.741L52.5927 117.978C52.2847 118.319 51.9393 118.594 51.5567 118.804C51.174 119.009 50.7353 119.112 50.2407 119.112C49.8533 119.112 49.5103 119.049 49.2117 118.923C48.9177 118.792 48.6703 118.61 48.4697 118.377C48.269 118.144 48.1173 117.861 48.0147 117.53C47.9167 117.199 47.8677 116.832 47.8677 116.431V111.909H49.1137ZM57.964 119.112C57.404 119.112 56.9723 118.956 56.669 118.643C56.3703 118.33 56.221 117.88 56.221 117.292V112.952H55.367C55.2923 112.952 55.2293 112.931 55.178 112.889C55.1266 112.842 55.101 112.772 55.101 112.679V112.182L56.263 112.035L56.55 109.844C56.5593 109.774 56.5896 109.718 56.641 109.676C56.6923 109.629 56.7576 109.606 56.837 109.606H57.467V112.049H59.497V112.952H57.467V117.208C57.467 117.507 57.5393 117.728 57.684 117.873C57.8286 118.018 58.0153 118.09 58.244 118.09C58.3746 118.09 58.4866 118.074 58.58 118.041C58.678 118.004 58.762 117.964 58.832 117.922C58.902 117.88 58.9603 117.843 59.007 117.81C59.0583 117.773 59.1026 117.754 59.14 117.754C59.2053 117.754 59.2636 117.794 59.315 117.873L59.679 118.468C59.4643 118.669 59.2053 118.827 58.902 118.944C58.5986 119.056 58.286 119.112 57.964 119.112ZM61.0376 119V111.909H61.7516C61.887 111.909 61.9803 111.935 62.0316 111.986C62.083 112.037 62.118 112.126 62.1366 112.252L62.2206 113.358C62.4633 112.863 62.762 112.478 63.1166 112.203C63.476 111.923 63.896 111.783 64.3766 111.783C64.5726 111.783 64.75 111.806 64.9086 111.853C65.0673 111.895 65.2143 111.956 65.3496 112.035L65.1886 112.966C65.156 113.083 65.0836 113.141 64.9716 113.141C64.9063 113.141 64.806 113.12 64.6706 113.078C64.5353 113.031 64.3463 113.008 64.1036 113.008C63.6696 113.008 63.3056 113.134 63.0116 113.386C62.7223 113.638 62.4796 114.004 62.2836 114.485V119H61.0376ZM68.0701 111.909V119H66.8241V111.909H68.0701ZM68.3501 109.683C68.3501 109.804 68.3244 109.919 68.2731 110.026C68.2264 110.129 68.1611 110.222 68.0771 110.306C67.9978 110.385 67.9044 110.448 67.7971 110.495C67.6898 110.542 67.5754 110.565 67.4541 110.565C67.3328 110.565 67.2184 110.542 67.1111 110.495C67.0084 110.448 66.9151 110.385 66.8311 110.306C66.7518 110.222 66.6888 110.129 66.6421 110.026C66.5954 109.919 66.5721 109.804 66.5721 109.683C66.5721 109.562 66.5954 109.447 66.6421 109.34C66.6888 109.228 66.7518 109.132 66.8311 109.053C66.9151 108.969 67.0084 108.904 67.1111 108.857C67.2184 108.81 67.3328 108.787 67.4541 108.787C67.5754 108.787 67.6898 108.81 67.7971 108.857C67.9044 108.904 67.9978 108.969 68.0771 109.053C68.1611 109.132 68.2264 109.228 68.2731 109.34C68.3244 109.447 68.3501 109.562 68.3501 109.683ZM73.0731 111.797C73.4978 111.797 73.8898 111.869 74.2491 112.014C74.6085 112.154 74.9188 112.359 75.1801 112.63C75.4415 112.896 75.6445 113.227 75.7891 113.624C75.9385 114.016 76.0131 114.464 76.0131 114.968C76.0131 115.164 75.9921 115.295 75.9501 115.36C75.9081 115.425 75.8288 115.458 75.7121 115.458H70.9941C71.0035 115.906 71.0641 116.296 71.1761 116.627C71.2881 116.958 71.4421 117.236 71.6381 117.46C71.8341 117.679 72.0675 117.845 72.3381 117.957C72.6088 118.064 72.9121 118.118 73.2481 118.118C73.5608 118.118 73.8291 118.083 74.0531 118.013C74.2818 117.938 74.4778 117.859 74.6411 117.775C74.8045 117.691 74.9398 117.614 75.0471 117.544C75.1591 117.469 75.2548 117.432 75.3341 117.432C75.4368 117.432 75.5161 117.472 75.5721 117.551L75.9221 118.006C75.7681 118.193 75.5838 118.356 75.3691 118.496C75.1545 118.631 74.9235 118.743 74.6761 118.832C74.4335 118.921 74.1815 118.986 73.9201 119.028C73.6588 119.075 73.3998 119.098 73.1431 119.098C72.6531 119.098 72.2005 119.016 71.7851 118.853C71.3745 118.685 71.0175 118.442 70.7141 118.125C70.4155 117.803 70.1821 117.406 70.0141 116.935C69.8461 116.464 69.7621 115.922 69.7621 115.311C69.7621 114.816 69.8368 114.354 69.9861 113.925C70.1401 113.496 70.3595 113.125 70.6441 112.812C70.9288 112.495 71.2765 112.247 71.6871 112.07C72.0978 111.888 72.5598 111.797 73.0731 111.797ZM73.1011 112.714C72.4991 112.714 72.0255 112.889 71.6801 113.239C71.3348 113.584 71.1201 114.065 71.0361 114.681H74.8931C74.8931 114.392 74.8535 114.128 74.7741 113.89C74.6948 113.647 74.5781 113.44 74.4241 113.267C74.2701 113.09 74.0811 112.954 73.8571 112.861C73.6378 112.763 73.3858 112.714 73.1011 112.714ZM77.6079 119V111.909H78.3499C78.5273 111.909 78.6393 111.995 78.6859 112.168L78.7839 112.938C79.0919 112.597 79.4349 112.322 79.8129 112.112C80.1956 111.902 80.6366 111.797 81.1359 111.797C81.5233 111.797 81.8639 111.862 82.1579 111.993C82.4566 112.119 82.7039 112.301 82.8999 112.539C83.1006 112.772 83.2523 113.055 83.3549 113.386C83.4576 113.717 83.5089 114.084 83.5089 114.485V119H82.2629V114.485C82.2629 113.948 82.1393 113.533 81.8919 113.239C81.6493 112.94 81.2759 112.791 80.7719 112.791C80.4033 112.791 80.0579 112.88 79.7359 113.057C79.4186 113.234 79.1246 113.475 78.8539 113.778V119H77.6079ZM87.5362 119.112C86.9762 119.112 86.5446 118.956 86.2412 118.643C85.9426 118.33 85.7932 117.88 85.7932 117.292V112.952H84.9392C84.8646 112.952 84.8016 112.931 84.7502 112.889C84.6989 112.842 84.6732 112.772 84.6732 112.679V112.182L85.8352 112.035L86.1222 109.844C86.1316 109.774 86.1619 109.718 86.2132 109.676C86.2646 109.629 86.3299 109.606 86.4092 109.606H87.0392V112.049H89.0692V112.952H87.0392V117.208C87.0392 117.507 87.1116 117.728 87.2562 117.873C87.4009 118.018 87.5876 118.09 87.8162 118.09C87.9469 118.09 88.0589 118.074 88.1522 118.041C88.2502 118.004 88.3342 117.964 88.4042 117.922C88.4742 117.88 88.5326 117.843 88.5792 117.81C88.6306 117.773 88.6749 117.754 88.7122 117.754C88.7776 117.754 88.8359 117.794 88.8872 117.873L89.2512 118.468C89.0366 118.669 88.7776 118.827 88.4742 118.944C88.1709 119.056 87.8582 119.112 87.5362 119.112ZM93.4169 111.797C93.8416 111.797 94.2336 111.869 94.5929 112.014C94.9522 112.154 95.2626 112.359 95.5239 112.63C95.7852 112.896 95.9882 113.227 96.1329 113.624C96.2822 114.016 96.3569 114.464 96.3569 114.968C96.3569 115.164 96.3359 115.295 96.2939 115.36C96.2519 115.425 96.1726 115.458 96.0559 115.458H91.3379C91.3472 115.906 91.4079 116.296 91.5199 116.627C91.6319 116.958 91.7859 117.236 91.9819 117.46C92.1779 117.679 92.4112 117.845 92.6819 117.957C92.9526 118.064 93.2559 118.118 93.5919 118.118C93.9046 118.118 94.1729 118.083 94.3969 118.013C94.6256 117.938 94.8216 117.859 94.9849 117.775C95.1482 117.691 95.2836 117.614 95.3909 117.544C95.5029 117.469 95.5986 117.432 95.6779 117.432C95.7806 117.432 95.8599 117.472 95.9159 117.551L96.2659 118.006C96.1119 118.193 95.9276 118.356 95.7129 118.496C95.4982 118.631 95.2672 118.743 95.0199 118.832C94.7772 118.921 94.5252 118.986 94.2639 119.028C94.0026 119.075 93.7436 119.098 93.4869 119.098C92.9969 119.098 92.5442 119.016 92.1289 118.853C91.7182 118.685 91.3612 118.442 91.0579 118.125C90.7592 117.803 90.5259 117.406 90.3579 116.935C90.1899 116.464 90.1059 115.922 90.1059 115.311C90.1059 114.816 90.1806 114.354 90.3299 113.925C90.4839 113.496 90.7032 113.125 90.9879 112.812C91.2726 112.495 91.6202 112.247 92.0309 112.07C92.4416 111.888 92.9036 111.797 93.4169 111.797ZM93.4449 112.714C92.8429 112.714 92.3692 112.889 92.0239 113.239C91.6786 113.584 91.4639 114.065 91.3799 114.681H95.2369C95.2369 114.392 95.1972 114.128 95.1179 113.89C95.0386 113.647 94.9219 113.44 94.7679 113.267C94.6139 113.09 94.4249 112.954 94.2009 112.861C93.9816 112.763 93.7296 112.714 93.4449 112.714ZM102.012 113.078C101.956 113.181 101.869 113.232 101.753 113.232C101.683 113.232 101.603 113.206 101.515 113.155C101.426 113.104 101.316 113.048 101.186 112.987C101.06 112.922 100.908 112.863 100.731 112.812C100.553 112.756 100.343 112.728 100.101 112.728C99.8907 112.728 99.7017 112.756 99.5337 112.812C99.3657 112.863 99.221 112.936 99.0997 113.029C98.983 113.122 98.892 113.232 98.8267 113.358C98.766 113.479 98.7357 113.612 98.7357 113.757C98.7357 113.939 98.787 114.091 98.8897 114.212C98.997 114.333 99.137 114.438 99.3097 114.527C99.4824 114.616 99.6784 114.695 99.8977 114.765C100.117 114.83 100.341 114.903 100.57 114.982C100.803 115.057 101.029 115.141 101.249 115.234C101.468 115.327 101.664 115.444 101.837 115.584C102.009 115.724 102.147 115.897 102.25 116.102C102.357 116.303 102.411 116.545 102.411 116.83C102.411 117.157 102.352 117.46 102.236 117.74C102.119 118.015 101.946 118.256 101.718 118.461C101.489 118.662 101.209 118.82 100.878 118.937C100.546 119.054 100.164 119.112 99.7297 119.112C99.235 119.112 98.787 119.033 98.3857 118.874C97.9844 118.711 97.6437 118.503 97.3637 118.251L97.6577 117.775C97.695 117.714 97.7394 117.668 97.7907 117.635C97.842 117.602 97.9097 117.586 97.9937 117.586C98.0777 117.586 98.1664 117.619 98.2597 117.684C98.353 117.749 98.465 117.822 98.5957 117.901C98.731 117.98 98.892 118.053 99.0787 118.118C99.27 118.183 99.508 118.216 99.7927 118.216C100.035 118.216 100.248 118.186 100.43 118.125C100.612 118.06 100.763 117.973 100.885 117.866C101.006 117.759 101.095 117.635 101.151 117.495C101.211 117.355 101.242 117.206 101.242 117.047C101.242 116.851 101.188 116.69 101.081 116.564C100.978 116.433 100.84 116.324 100.668 116.235C100.495 116.142 100.297 116.062 100.073 115.997C99.8534 115.927 99.627 115.855 99.3937 115.78C99.165 115.705 98.9387 115.621 98.7147 115.528C98.4954 115.43 98.2994 115.309 98.1267 115.164C97.954 115.019 97.814 114.842 97.7067 114.632C97.604 114.417 97.5527 114.158 97.5527 113.855C97.5527 113.584 97.6087 113.325 97.7207 113.078C97.8327 112.826 97.996 112.607 98.2107 112.42C98.4254 112.229 98.689 112.077 99.0017 111.965C99.3144 111.853 99.6714 111.797 100.073 111.797C100.539 111.797 100.957 111.872 101.326 112.021C101.699 112.166 102.021 112.366 102.292 112.623L102.012 113.078Z"
        fill="white" />
    <defs>
        <filter id="filter0_d_0_1" x="0" y="0" width="114" height="138" filterUnits="userSpaceOnUse"
            color-interpolation-filters="sRGB">
            <feFlood flood-opacity="0" result="BackgroundImageFix" />
            <feColorMatrix in="SourceAlpha" type="matrix"
                values="0 0 0 0 0 0 0 0 0 0 0 0 0 0 0 0 0 0 127 0" result="hardAlpha" />
            <feOffset dy="4" />
            <feGaussianBlur stdDeviation="2" />
            <feComposite in2="hardAlpha" operator="out" />
            <feColorMatrix type="matrix" values="0 0 0 0 0 0 0 0 0 0 0 0 0 0 0 0 0 0 0.25 0" />
            <feBlend mode="normal" in2="BackgroundImageFix" result="effect1_dropShadow_0_1" />
            <feBlend mode="normal" in="SourceGraphic" in2="effect1_dropShadow_0_1" result="shape" />
        </filter>
    </defs>
</svg>