<svg width="123" height="140" viewBox="0 0 123 140" fill="none" xmlns="http://www.w3.org/2000/svg">
    <path
        d="M59.6837 108.647C64.9801 108.647 69.2898 104.332 69.2898 99.0272C69.2898 93.7225 64.9801 89.4072 59.6837 89.4072C54.3859 89.4072 50.0762 93.7225 50.0762 99.0272C50.0762 104.332 54.3859 108.647 59.6837 108.647ZM59.6837 93.7997C62.5611 93.7997 64.903 96.1446 64.903 99.0272C64.903 101.91 62.5611 104.255 59.6837 104.255C56.8049 104.255 54.463 101.91 54.463 99.0272C54.463 96.1446 56.8049 93.7997 59.6837 93.7997Z"
        fill="#D91E3E" />
    <path
        d="M107.197 99.3994C107.197 103.843 106.533 107.029 105.976 108.919C105.633 110.08 106.296 111.301 107.458 111.647C107.665 111.707 107.875 111.736 108.081 111.736C109.028 111.736 109.902 111.118 110.183 110.16C110.823 107.996 111.584 104.369 111.584 99.3994C111.584 98.1869 110.601 97.2031 109.39 97.2031C108.179 97.2031 107.197 98.1869 107.197 99.3994Z"
        fill="#D91E3E" />
    <path
        d="M11.2903 122.771C11.2923 122.771 11.2939 122.771 11.2939 122.771C11.2969 122.771 11.2978 122.771 11.2978 122.771C11.3532 122.771 11.4074 122.769 11.4631 122.766L34.2321 121.091L31.9962 124.833C31.6092 125.479 31.5807 126.283 31.9234 126.958C32.2661 127.63 32.9301 128.079 33.6827 128.148L42.5891 128.948L45.6921 137.685C45.9763 138.485 46.696 139.051 47.5399 139.134C47.6127 139.143 47.687 139.146 47.7584 139.146C48.5238 139.146 49.2392 138.746 49.6391 138.079L59.7036 121.303L69.7252 138.076C70.1236 138.746 70.8405 139.146 71.6073 139.146C71.6787 139.146 71.7515 139.143 71.8229 139.134C72.6683 139.051 73.3894 138.488 73.6736 137.685L76.7781 128.948L85.683 128.148C86.4356 128.079 87.0996 127.63 87.4423 126.958C87.785 126.283 87.7565 125.482 87.3695 124.833L85.1199 121.068L107.903 122.766C107.958 122.769 108.013 122.771 108.068 122.771C108.071 122.771 108.074 122.771 108.075 122.771C115.197 122.771 119.039 110.729 119.039 99.3993C119.039 88.0607 115.197 76.0072 108.075 76.0072C108.036 76.0072 108.001 76.0186 107.962 76.0194C107.946 76.0199 107.931 76.012 107.915 76.0129L70.305 78.76L68.6742 76.0129C68.1144 75.0635 66.9363 74.6775 65.921 75.1178L59.6821 77.8088L53.4461 75.1236C52.4294 74.6775 51.2541 75.0692 50.6929 76.0186L49.0681 78.7614L11.4503 76.0129C11.4344 76.012 11.4203 76.0199 11.4044 76.0194C11.3655 76.0186 11.3294 76.0072 11.2903 76.0072C4.17036 76.0072 0.327637 88.0607 0.327637 99.3993C0.327637 110.729 4.17036 122.771 11.2903 122.771ZM18.1711 117.867C20.8459 113.314 22.2545 106.236 22.2545 99.3993C22.2545 92.5533 20.8443 85.465 18.1668 80.9081L43.3243 82.7462L40.6099 83.3594C39.536 83.6025 38.8077 84.6034 38.9077 85.7015L39.5246 92.4703L35.0493 97.5806C34.3239 98.4099 34.3239 99.6481 35.0507 100.477L39.5289 105.585L38.9148 112.354C38.8908 112.622 38.9188 112.885 38.987 113.133L36.9847 116.484L18.1711 117.867ZM48.2696 131.834L46.2504 126.152C45.9634 125.342 45.2337 124.776 44.3798 124.699L37.554 124.084L42.862 115.2L47.2358 116.188L50.6915 122.034C51.2556 122.983 52.4351 123.369 53.4447 122.934L53.6653 122.839L48.2696 131.834ZM74.9874 124.699C74.1334 124.776 73.4037 125.342 73.1167 126.152L71.1004 131.825L65.7449 122.861L65.921 122.937C66.2024 123.06 66.4965 123.117 66.7864 123.117C67.5404 123.117 68.2687 122.726 68.6742 122.042L72.1371 116.194L76.5084 115.206L81.8117 124.084L74.9874 124.699ZM80.3859 113.143C80.4551 112.893 80.4826 112.628 80.458 112.356L79.8411 105.585L84.3164 100.475C85.0419 99.6481 85.0419 98.4099 84.3179 97.5806L79.8454 92.4675L80.4666 85.6986C80.5665 84.6005 79.8397 83.5996 78.7658 83.3566L76.0591 82.7441L101.199 80.9078C98.5214 85.4647 97.1112 92.5533 97.1112 99.3993C97.1112 106.233 98.5184 113.307 101.19 117.86L82.3656 116.457L80.3859 113.143ZM114.653 99.3993C114.653 110.951 110.78 118.333 108.099 118.375L108.014 118.369C105.334 118.259 101.498 110.897 101.498 99.3993C101.498 87.89 105.332 80.5235 108.012 80.4102L108.1 80.4038C110.781 80.4483 114.653 87.8355 114.653 99.3993ZM53.4818 79.9192L58.8168 82.2184C59.3708 82.4529 59.9977 82.4558 60.5518 82.2155L65.8882 79.9135L68.8556 84.9122C69.1626 85.4327 69.6695 85.8016 70.2564 85.9331L75.9213 87.2171L75.3901 93.0051C75.3358 93.6028 75.5286 94.2004 75.9241 94.6523L79.7511 99.0275L75.9213 103.4C75.5257 103.852 75.3315 104.447 75.3858 105.047L75.9141 110.838L70.2493 112.119C69.6609 112.251 69.1526 112.622 68.8456 113.14L65.8839 118.142L60.5504 115.842C60.2748 115.722 59.9792 115.662 59.6836 115.662C59.3894 115.662 59.0938 115.722 58.8182 115.84L53.4847 118.136L50.5287 113.137C50.2203 112.617 49.7133 112.245 49.1236 112.113L43.4573 110.832L43.9828 105.041C44.0371 104.444 43.8428 103.849 43.4459 103.394L39.616 99.0275L43.4444 94.6551C43.84 94.2033 44.0342 93.6085 43.9799 93.0079L43.4516 87.22L49.1164 85.9388C49.7048 85.8073 50.2117 85.4355 50.5201 84.9179L53.4818 79.9192ZM11.2655 80.4038L11.3541 80.4102C14.0335 80.5235 17.8677 87.89 17.8677 99.3993C17.8677 110.903 14.0271 118.268 11.3476 118.369L11.2682 118.375C8.58697 118.336 4.71443 110.953 4.71443 99.3993C4.71443 87.8355 8.58429 80.4483 11.2655 80.4038Z"
        fill="#D91E3E" />
    <path
        d="M9.9766 101.595C11.1875 101.595 12.17 100.612 12.17 99.3991C12.17 94.9523 12.8369 91.7638 13.3981 89.8707C13.7422 88.7096 13.0796 87.4857 11.9187 87.1425C10.7634 86.7937 9.53678 87.46 9.1912 88.6239C8.54861 90.7943 7.7832 94.4261 7.7832 99.3991C7.7832 100.612 8.76566 101.595 9.9766 101.595Z"
        fill="#D91E3E" />
    <path
        d="M117.7 22.2579C117.671 22.1836 117.633 22.1196 117.597 22.0493C117.514 21.8835 117.413 21.733 117.29 21.5936C117.237 21.5332 117.188 21.4756 117.128 21.4215C116.981 21.2865 116.814 21.1775 116.631 21.0858C116.578 21.0592 116.534 21.0227 116.479 21.0006C116.461 20.9932 116.447 20.9795 116.429 20.9727L61.6085 0.500308C60.002 -0.0945036 58.2342 -0.0945036 56.6305 0.500308L8.57572 18.4476C6.64507 19.1711 5.39844 20.9698 5.39844 23.0345C5.39844 25.0963 6.64507 26.8951 8.57572 27.6186L17.6749 31.0162V56.1495C17.6749 59.5525 19.9325 62.5609 23.1655 63.4617C35.0964 66.7875 47.1058 68.4489 59.1209 68.4489C71.1318 68.4489 83.1469 66.7846 95.0749 63.4617C98.3079 62.5609 100.567 59.5525 100.567 56.1495V31.0144L113.469 26.196V40.1843C110.638 41.1019 108.571 43.7369 108.571 46.8727C108.571 49.3985 109.914 51.6012 111.912 52.8484C110.462 54.9498 108.831 58.0885 108.831 61.7115C108.831 68.0714 113.877 73.053 114.093 73.2617C114.518 73.6764 115.07 73.8823 115.621 73.8823C116.172 73.8823 116.723 73.6764 117.149 73.2617C117.364 73.053 122.411 68.0714 122.411 61.7115C122.411 58.0887 120.78 54.9504 119.33 52.8487C121.329 51.6015 122.672 49.3987 122.672 46.8727C122.672 43.7671 120.645 41.1518 117.856 40.2099V23.0316C117.856 22.7594 117.792 22.5024 117.7 22.2579ZM9.78523 23.0345C9.78523 22.8029 9.89376 22.6456 10.1094 22.5655L58.1628 4.61823C58.4726 4.50099 58.7968 4.44379 59.1209 4.44379C59.4437 4.44379 59.7678 4.50099 60.0763 4.61823L103.505 20.8354H59.1209C57.91 20.8354 56.9275 21.8191 56.9275 23.0316C56.9275 24.2441 57.91 25.2279 59.1209 25.2279H103.505L60.0777 41.4451C59.4594 41.6767 58.7825 41.6824 58.1642 41.4451L10.1094 23.5006C9.89376 23.4206 9.78523 23.2633 9.78523 23.0345ZM96.1802 56.1495C96.1802 57.5879 95.242 58.8547 93.8983 59.2293C70.8219 65.6665 47.4185 65.6665 24.3422 59.2293C22.9999 58.8547 22.0617 57.5879 22.0617 56.1495V32.6543L56.6319 45.563C57.4345 45.8604 58.277 46.012 59.1195 46.012C59.9635 46.012 60.8074 45.8604 61.6099 45.563L96.1802 32.6526V56.1495ZM115.621 68.2487C114.516 66.6845 113.218 64.2967 113.218 61.7115C113.218 59.1264 114.514 56.7386 115.618 55.1772C116.723 56.7443 118.024 59.1378 118.024 61.7115C118.024 64.2995 116.726 66.6874 115.621 68.2487ZM115.624 49.5372H115.62C114.151 49.5351 112.958 48.3413 112.958 46.8727C112.958 45.4028 114.153 44.2046 115.621 44.2046C117.09 44.2046 118.286 45.4028 118.286 46.8727C118.286 48.3413 117.092 49.5351 115.624 49.5372Z"
        fill="#D91E3E" />
</svg>
    