<svg width="56" height="31" viewBox="0 0 56 31" fill="none" xmlns="http://www.w3.org/2000/svg">
    <path
        d="M4.79496 10.4321C4.79496 9.48359 4.73418 8.60982 4.79496 7.74757C4.90851 6.73824 5.38629 5.79678 6.14791 5.08167C6.90953 4.36657 7.90848 3.92153 8.97644 3.82149C9.48697 3.78125 10.0947 3.94794 10.4898 3.73525C10.8848 3.52257 10.9942 2.94774 11.2677 2.5511C11.7926 1.81716 12.5522 1.26138 13.4352 0.965121C14.3182 0.668867 15.2783 0.64769 16.1749 0.90467C17.0715 1.16165 17.8576 1.6833 18.4182 2.39329C18.9788 3.10328 19.2844 3.96433 19.2903 4.85043C19.2903 6.93132 19.2903 9.0122 19.2903 11.0931V11.6679H36.308V11.0931C36.308 9.04669 36.308 6.99454 36.308 4.94814C36.2368 3.95039 36.5499 2.96203 37.1896 2.16576C37.8292 1.36949 38.7521 0.819174 39.7875 0.616587C40.8229 0.414001 41.9008 0.57283 42.822 1.06371C43.7432 1.55459 44.4453 2.34434 44.7985 3.2869C44.8365 3.45413 44.9427 3.60043 45.094 3.69406C45.2454 3.78769 45.4296 3.82109 45.6069 3.787C46.4332 3.70634 47.2675 3.82722 48.0304 4.13817C48.7932 4.44911 49.4592 4.93973 49.9646 5.56321C50.6398 6.41575 50.991 7.45883 50.9614 8.52361C50.9614 9.13868 50.9614 9.75373 50.9614 10.4435C51.32 10.4435 51.6177 10.4435 51.9155 10.4435C52.751 10.4606 53.5481 10.779 54.1435 11.3336C54.7389 11.8882 55.0877 12.6371 55.1185 13.4269C55.1732 14.7318 55.1793 16.0482 55.1185 17.353C55.0817 18.1424 54.7292 18.8891 54.1323 19.442C53.5354 19.9948 52.7386 20.3125 51.9034 20.3306C51.6177 20.3306 51.3382 20.3306 50.9614 20.3306C50.9614 20.963 50.9614 21.555 50.9614 22.1529C50.99 22.9458 50.8191 23.7338 50.463 24.4522C50.0765 25.2436 49.4488 25.9078 48.6605 26.3595C47.8721 26.8112 46.959 27.0297 46.0384 26.9872C45.748 26.9359 45.4478 26.9864 45.1939 27.1292C44.94 27.272 44.7498 27.4974 44.6588 27.7632C44.2461 28.601 43.5412 29.2789 42.6624 29.6829C41.7836 30.087 40.7845 30.1926 39.833 29.9821C38.8983 29.785 38.057 29.3053 37.4363 28.6156C36.8156 27.9258 36.4494 27.0636 36.3931 26.1595C36.3931 25.6938 36.3931 25.2225 36.3931 24.7511V13.2832H19.4058V17.537H36.2229C36.4698 17.5292 36.7168 17.5505 36.9583 17.6002C37.1353 17.6363 37.2911 17.7349 37.3938 17.8759C37.4966 18.0169 37.5386 18.1897 37.5114 18.359C37.5126 18.5197 37.4514 18.6752 37.3394 18.7961C37.2273 18.9169 37.0722 18.9946 36.9036 19.0143C36.6763 19.046 36.4464 19.0575 36.2168 19.0488H19.3693V19.6236C19.3693 21.6873 19.3693 23.7509 19.3693 25.8146C19.3867 26.7768 19.0494 27.7147 18.4155 28.4674C17.7815 29.2201 16.8904 29.7407 15.8949 29.9399C14.8994 30.1391 13.8617 30.0044 12.9598 29.559C12.0578 29.1136 11.3479 28.3852 10.9517 27.4988C10.9123 27.3239 10.8013 27.1708 10.6431 27.0728C10.4849 26.9749 10.2922 26.9399 10.1069 26.9757C9.28115 27.0564 8.44736 26.9343 7.68611 26.6211C6.92486 26.3079 6.26189 25.8143 5.7613 25.188C5.10422 24.343 4.76027 23.3165 4.78279 22.2678C4.78279 21.647 4.78279 21.0262 4.78279 20.3249C4.49714 20.3249 4.23576 20.3249 3.98049 20.3249C3.53512 20.3288 3.09345 20.2483 2.68148 20.0882C2.26952 19.9281 1.89562 19.6916 1.58182 19.3927C1.26802 19.0938 1.02069 18.7384 0.854378 18.3476C0.688065 17.9569 0.606159 17.5385 0.61348 17.1174C0.61348 16.0079 0.61348 14.8985 0.61348 13.7948C0.582855 13.3481 0.652455 12.9004 0.817802 12.481C0.983149 12.0615 1.24049 11.6799 1.57284 11.3612C1.9052 11.0426 2.3051 10.794 2.74625 10.6319C3.1874 10.4697 3.65977 10.3977 4.13243 10.4206L4.79496 10.4321ZM10.5384 25.3777V11.1908C10.5245 10.9995 10.5245 10.8074 10.5384 10.616C10.5591 10.4488 10.6402 10.2935 10.768 10.1764C10.8958 10.0593 11.0625 9.98763 11.2399 9.97343C11.4172 9.95923 11.5943 10.0034 11.7411 10.0985C11.8879 10.1936 11.9955 10.3338 12.0457 10.4953C12.0982 10.7236 12.1207 10.9573 12.1125 11.1908C12.1125 15.9734 12.1125 20.7541 12.1125 25.5329C12.1031 25.8856 12.1336 26.2383 12.2037 26.5848C12.3699 27.2179 12.7793 27.7698 13.352 28.1332C13.9248 28.4965 14.62 28.6454 15.3023 28.5507C15.9847 28.456 16.6054 28.1247 17.0438 27.6211C17.4821 27.1174 17.7066 26.4776 17.6736 25.826C17.6736 18.9012 17.6736 11.9726 17.6736 5.04013C17.6912 4.68443 17.6323 4.32904 17.5005 3.99548C17.3687 3.66192 17.1667 3.35712 16.9068 3.09951C16.6469 2.84191 16.3344 2.63686 15.9883 2.49676C15.6422 2.35665 15.2696 2.28442 14.8931 2.28442C14.5166 2.28442 14.144 2.35665 13.7979 2.49676C13.4518 2.63686 13.1393 2.84191 12.8793 3.09951C12.6194 3.35712 12.4174 3.66192 12.2856 3.99548C12.1538 4.32904 12.0949 4.68443 12.1125 5.04013C12.1125 5.76442 12.1125 10.5183 12.1125 11.2426C12.1125 11.8174 11.7965 12.168 11.3042 12.168C10.8119 12.168 10.5262 11.8404 10.5141 11.231C10.5019 10.6217 10.5141 6.00008 10.5141 5.41375C8.05257 5.03436 6.31439 6.33925 6.30831 8.55235C6.30831 13.151 6.30831 17.7497 6.30831 22.3483C6.3387 24.4924 8.16199 25.8548 10.5384 25.4064V25.3777ZM43.5162 15.3526C43.5162 13.1376 43.5162 10.9245 43.5162 8.71332C43.5162 7.33947 43.5162 5.95984 43.5162 4.58599C43.4874 4.23388 43.3827 3.89106 43.2085 3.57867C43.0343 3.26628 42.7943 2.99092 42.5034 2.76958C42.2124 2.54823 41.8767 2.38561 41.5167 2.29168C41.1567 2.19776 40.7802 2.17452 40.4104 2.22344C39.7149 2.30267 39.0771 2.62862 38.6259 3.13544C38.1746 3.64226 37.9435 4.29217 37.9793 4.95389C37.9793 11.8979 37.9793 18.8399 37.9793 25.7801C37.9793 25.918 37.9793 26.0502 37.9793 26.1824C38.0649 26.8622 38.4271 27.4838 38.9891 27.9152C39.5511 28.3467 40.2687 28.5541 40.9897 28.4936C41.7106 28.433 42.3784 28.1092 42.8512 27.5908C43.324 27.0724 43.5647 26.4002 43.5222 25.7168C43.5162 22.2908 43.5101 18.8361 43.5162 15.3814V15.3526ZM45.151 25.3834C47.5031 25.8146 49.3143 24.4637 49.3264 22.2564C49.3264 17.6577 49.3264 13.059 49.3264 8.46039C49.3264 6.25878 47.5031 4.90215 45.151 5.33902V25.3834ZM4.68553 12.0071C3.02023 11.7369 2.14501 12.4267 2.14501 13.9845V16.7955C2.14501 18.3418 3.0567 19.0545 4.68553 18.7556V12.0071ZM50.9492 18.7729C52.6874 19.066 53.6112 18.1463 53.514 16.7207C53.4471 15.7665 53.514 14.8123 53.514 13.8466C53.514 12.4152 52.4686 11.6622 50.9614 12.0186L50.9492 18.7729Z"
        fill="#A8081A" />
</svg>
    