<svg width="141" height="160" viewBox="0 0 141 160" fill="none" xmlns="http://www.w3.org/2000/svg">
    <path
        d="M26.6377 70.5345C26.6377 82.8666 31.8493 94.7061 40.9355 103.018C48.1267 109.599 52.2523 118.816 52.2523 128.306V131.674C50.4833 133.277 49.3497 135.572 49.3497 138.147C49.3497 141.882 51.7022 145.054 54.9909 146.31C54.2593 147.59 53.808 149.051 53.808 150.63C53.808 155.458 57.7216 159.385 62.5321 159.385H78.4671C83.2776 159.385 87.1912 155.458 87.1912 150.63C87.1912 149.051 86.7399 147.59 86.0083 146.31C89.297 145.054 91.6495 141.882 91.6495 138.147C91.6495 135.572 90.5159 133.277 88.7468 131.674V128.343C88.7468 118.924 92.9605 109.749 100.608 102.512C109.642 93.9633 114.648 81.9127 114.348 69.4513C113.784 45.9849 94.2879 26.7285 70.8877 26.5256C70.754 26.5239 70.6268 26.5239 70.4963 26.5239C58.8501 26.5239 47.8984 31.0448 39.6211 39.2798C31.2492 47.608 26.6377 58.708 26.6377 70.5345ZM78.4671 154.359H62.5321C60.484 154.359 58.8174 152.687 58.8174 150.63C58.8174 148.575 60.484 146.903 62.5321 146.903H78.4671C80.5152 146.903 82.1818 148.575 82.1818 150.63C82.1818 152.687 80.5152 154.359 78.4671 154.359ZM82.9221 141.876H78.4671H62.5321H58.0771C56.0257 141.876 54.3592 140.204 54.3592 138.147C54.3592 136.091 56.0257 134.418 58.0771 134.418H82.9221C84.9735 134.418 86.64 136.091 86.64 138.147C86.64 140.204 84.9735 141.876 82.9221 141.876ZM70.4963 31.5503C70.6137 31.5503 70.7279 31.5503 70.842 31.552C91.219 31.7287 108.847 49.1395 109.339 69.5724C109.606 80.6119 105.171 91.2848 97.1709 98.8555C88.5088 107.051 83.7374 117.525 83.7374 128.343V129.392H82.9221H73.0043V91.1218C80.6618 89.9329 86.4933 83.7119 86.4933 78.4308C86.4933 77.0433 85.3714 75.9176 83.9885 75.9176C82.6057 75.9176 81.4838 77.0433 81.4838 78.4308C81.4838 81.1404 76.8201 86.3451 70.4376 86.3451C64.1269 86.3451 59.5154 81.1404 59.5154 78.4308C59.5154 77.0433 58.3935 75.9176 57.0107 75.9176C55.6278 75.9176 54.5059 77.0433 54.5059 78.4308C54.5059 83.6908 60.5137 89.9505 67.9949 91.1255V129.392H58.0771H57.2618V128.306C57.2618 117.405 52.5426 106.835 44.311 99.3039C36.2619 91.9409 31.6471 81.4562 31.6471 70.5345C31.6471 60.0579 35.7303 50.226 43.1467 42.85C50.4814 35.5558 60.1807 31.5503 70.4963 31.5503Z"
        fill="#D91E3E" />
    <path
        d="M73.0046 11.7637V2.72854C73.0046 1.34104 71.8826 0.215332 70.4998 0.215332C69.117 0.215332 67.9951 1.34104 67.9951 2.72854V11.7637C67.9951 13.1512 69.117 14.2769 70.4998 14.2769C71.8826 14.2769 73.0046 13.1512 73.0046 11.7637Z"
        fill="#D91E3E" />
    <path
        d="M120.339 17.2729C119.361 16.2945 117.776 16.2879 116.797 17.2729L109.883 24.2088C108.905 25.1905 108.905 26.7809 109.883 27.7626C110.372 28.2535 111.012 28.4989 111.654 28.4989C112.297 28.4989 112.936 28.2535 113.425 27.7626L120.339 20.8267C121.318 19.845 121.318 18.2546 120.339 17.2729Z"
        fill="#D91E3E" />
    <path
        d="M20.6596 117.288C21.1488 117.778 21.788 118.024 22.4305 118.024C23.0697 118.024 23.7122 117.778 24.2014 117.288L31.1155 110.352C32.0939 109.37 32.0939 107.78 31.1155 106.798C30.1371 105.816 28.5521 105.816 27.5736 106.798L20.6596 113.734C19.6812 114.715 19.6812 116.306 20.6596 117.288Z"
        fill="#D91E3E" />
    <path
        d="M129.472 69.793H138.476C139.859 69.793 140.981 68.6673 140.981 67.2798C140.981 65.8923 139.859 64.7666 138.476 64.7666H129.472C128.089 64.7666 126.967 65.8923 126.967 67.2798C126.967 68.6673 128.089 69.793 129.472 69.793Z"
        fill="#D91E3E" />
    <path
        d="M11.5279 64.7666H2.52327C1.14046 64.7666 0.0185547 65.8923 0.0185547 67.2798C0.0185547 68.6673 1.14046 69.793 2.52327 69.793H11.5279C12.9107 69.793 14.0326 68.6673 14.0326 67.2798C14.0326 65.8923 12.9107 64.7666 11.5279 64.7666Z"
        fill="#D91E3E" />
    <path
        d="M113.425 106.798C112.447 105.816 110.862 105.816 109.883 106.798C108.905 107.78 108.905 109.37 109.883 110.352L116.797 117.288C117.286 117.778 117.926 118.024 118.568 118.024C119.211 118.024 119.85 117.778 120.339 117.288C121.318 116.306 121.318 114.715 120.339 113.734L113.425 106.798Z"
        fill="#D91E3E" />
    <path
        d="M24.2014 17.2729C23.223 16.2912 21.638 16.2912 20.6596 17.2729C19.6812 18.2546 19.6812 19.845 20.6596 20.8267L27.5736 27.7626C28.0628 28.2535 28.7021 28.4989 29.3446 28.4989C29.987 28.4989 30.6263 28.2535 31.1155 27.7626C32.0939 26.7809 32.0939 25.1905 31.1155 24.2088L24.2014 17.2729Z"
        fill="#D91E3E" />
</svg>
    