<svg width="582" height="3147" viewBox="0 0 582 3147" fill="none" xmlns="http://www.w3.org/2000/svg">
    <path
        d="M53.1133 3147L-57.6785 2950.16C92.535 2795.59 186.305 2594.93 208.507 2380.54C238.122 2136.67 164.605 1913.01 67.0505 1696.66C-30.5041 1480.31 -107.152 1266.4 -117.953 1029.14C-133.98 614.211 59.0371 294.388 345.778 -0.000488281C372.138 39.8762 400.997 78.0442 432.183 114.272C483.748 167.924 478.873 214.957 434.973 271.047C295.609 451.861 225.925 658.456 267.386 884.909C297.97 1036.59 344.69 1184.57 406.75 1326.32C558.656 1681.67 639.487 2042.26 537.403 2426.53C476.435 2641.19 363.744 2837.61 209.204 2998.59C164.26 3047.71 120.008 3097.53 75.412 3147H53.1133Z"
        fill="#F8EAEA" />
</svg>